<svg xmlns="http://www.w3.org/2000/svg" width="31.885" height="23.591" viewBox="0 0 31.885 23.591">
  <g id="quote-svgrepo-com" transform="translate(0 -66.59)">
    <path id="Path_200" data-name="Path 200" d="M7.44,66.59a7.442,7.442,0,0,0,0,14.884,15.644,15.644,0,0,1-2.282,6.743,1.514,1.514,0,0,0,2.539,1.5c5.164-5.648,7.186-12.3,7.186-15.681A7.442,7.442,0,0,0,7.44,66.59Z" fill="#737989"/>
    <path id="Path_201" data-name="Path 201" d="M280.45,66.59a7.442,7.442,0,0,0,0,14.884,15.644,15.644,0,0,1-2.282,6.743,1.514,1.514,0,0,0,2.539,1.5c5.164-5.648,7.186-12.3,7.186-15.681A7.442,7.442,0,0,0,280.45,66.59Z" transform="translate(-256.008)" fill="#737989"/>
  </g>
</svg>
