<svg id="undraw_done_re_oak4" xmlns="http://www.w3.org/2000/svg" width="120.765" height="103.629" viewBox="0 0 120.765 103.629">
  <path id="Path_438" data-name="Path 438" d="M308.605,641.531a4.3,4.3,0,0,0,4.148-.731c1.453-1.219,1.908-3.228,2.279-5.088l1.1-5.5-2.295,1.58a16.714,16.714,0,0,0-4.481,3.955,5.677,5.677,0,0,0-.723,5.674" transform="translate(-299.537 -546.431)" fill="#e6e6e6"/>
  <path id="Path_439" data-name="Path 439" d="M310.617,670.335a27.6,27.6,0,0,1-.383-6.363,10.008,10.008,0,0,1,1.93-5.247A8.727,8.727,0,0,1,314.4,656.7c.224-.141.43.214.207.354a8.3,8.3,0,0,0-3.282,3.96,13.3,13.3,0,0,0-.706,5.729c.074,1.167.232,2.327.391,3.486a.213.213,0,0,1-.143.252.206.206,0,0,1-.252-.143Z" transform="translate(-301.194 -568.192)" fill="#f2f2f2"/>
  <path id="Path_442" data-name="Path 442" d="M324.424,698.828a3.162,3.162,0,0,0,2.755,1.422,6.271,6.271,0,0,0,3.6-1.964l3.1-2.733-2.049-.1a12.292,12.292,0,0,0-4.388.318,4.179,4.179,0,0,0-2.954,3" transform="translate(-312.923 -600.061)" fill="#e6e6e6"/>
  <path id="Path_443" data-name="Path 443" d="M307.975,711.109c1.391-2.46,3-5.2,5.885-6.069a6.567,6.567,0,0,1,2.475-.256c.263.023.2.428-.065.405a6.1,6.1,0,0,0-3.95,1.045,10.269,10.269,0,0,0-2.715,2.93c-.45.685-.852,1.4-1.255,2.111C308.221,711.5,307.845,711.34,307.975,711.109Z" transform="translate(-299.369 -607.757)" fill="#f2f2f2"/>
  <path id="Path_141" data-name="Path 141" d="M575.713,230.863H499.048a.892.892,0,0,1-.891-.891v-71.2a.892.892,0,0,1,.891-.891h76.665a.892.892,0,0,1,.891.891v71.2a.892.892,0,0,1-.891.891Z" transform="translate(-455.839 -157.884)" fill="#fff"/>
  <path id="Path_141-2" data-name="Path 141" d="M575.713,230.863H499.048a.892.892,0,0,1-.891-.891v-71.2a.892.892,0,0,1,.891-.891h76.665a.892.892,0,0,1,.891.891v71.2a.892.892,0,0,1-.891.891ZM499.048,158.24a.535.535,0,0,0-.534.534v71.2a.535.535,0,0,0,.534.534h76.665a.535.535,0,0,0,.534-.534v-71.2a.535.535,0,0,0-.534-.534Z" transform="translate(-455.839 -157.884)" fill="#cacaca"/>
  <path id="Path_142" data-name="Path 142" d="M704.6,262.185a.6.6,0,1,0,0,1.21H737.8a.6.6,0,0,0,0-1.21Z" transform="translate(-625.17 -243.685)" fill="#e4e4e4"/>
  <path id="Path_143" data-name="Path 143" d="M704.6,282.65a.6.6,0,1,0,0,1.21h16.947a.6.6,0,0,0,0-1.21Z" transform="translate(-625.17 -260.52)" fill="#e4e4e4"/>
  <path id="Path_142-2" data-name="Path 142" d="M541.036,392.7a.6.6,0,0,0,0,1.21h62.24a.6.6,0,1,0,0-1.21Z" transform="translate(-490.615 -351.053)" fill="#e4e4e4"/>
  <path id="Path_143-2" data-name="Path 143" d="M541.036,413.17a.6.6,0,0,0,0,1.21h45.992a.6.6,0,1,0,0-1.21Z" transform="translate(-490.615 -367.888)" fill="#e4e4e4"/>
  <path id="Path_142-3" data-name="Path 142" d="M541.036,433.172a.6.6,0,0,0,0,1.21h62.24a.6.6,0,1,0,0-1.21Z" transform="translate(-490.615 -384.342)" fill="#e4e4e4"/>
  <path id="Path_143-3" data-name="Path 143" d="M541.036,453.637a.6.6,0,0,0,0,1.21h45.992a.6.6,0,1,0,0-1.21Z" transform="translate(-490.615 -401.177)" fill="#e4e4e4"/>
  <path id="Path_142-4" data-name="Path 142" d="M541.036,474.172a.6.6,0,0,0,0,1.21h62.24a.6.6,0,1,0,0-1.21Z" transform="translate(-490.615 -418.07)" fill="#e4e4e4"/>
  <path id="Path_143-4" data-name="Path 143" d="M541.036,494.637a.6.6,0,0,0,0,1.21h45.992a.6.6,0,1,0,0-1.21Z" transform="translate(-490.615 -434.905)" fill="#e4e4e4"/>
  <path id="Path_202" data-name="Path 202" d="M559.11,244.211a8.691,8.691,0,1,1,8.691-8.691A8.691,8.691,0,0,1,559.11,244.211Z" transform="translate(-498.831 -214.599)" fill="#01b6a4"/>
  <path id="Path_203" data-name="Path 203" d="M411.669,481.977a2.172,2.172,0,0,0-2.652-2.015l-2.873-4.049-2.886,1.146,4.137,5.661a2.184,2.184,0,0,0,4.274-.742Z" transform="translate(-377.773 -419.502)" fill="#a0616a"/>
  <path id="Path_204" data-name="Path 204" d="M378.8,393.021,370.1,381.744l3.257-10.237a3.8,3.8,0,0,1,1.918-3.322l.1-.045,2.834,7.558-2.081,5.549,5.108,8.591Z" transform="translate(-350.5 -330.846)" fill="#3f3d56"/>
  <path id="Path_205" data-name="Path 205" d="M563.25,312.332a2.172,2.172,0,0,0-1.8,2.8l-3.814,3.177L559,321.1l5.324-4.563a2.184,2.184,0,0,0-1.07-4.2Z" transform="translate(-504.764 -284.921)" fill="#a0616a"/>
  <path id="Path_206" data-name="Path 206" d="M476.244,333.846l-10.571,9.539-10.458-2.456a3.8,3.8,0,0,1-3.46-1.655l-.053-.1,7.317-3.41,5.694,1.646,8.17-5.757Z" transform="translate(-417.624 -300.829)" fill="#3f3d56"/>
  <path id="Path_207" data-name="Path 207" d="M227.246,517.628h2.84l1.351-10.955h-4.192Z" transform="translate(-186.937 -416.8)" fill="#a0616a"/>
  <path id="Path_208" data-name="Path 208" d="M0,0H8.927V3.449H2.5A2.5,2.5,0,0,1,0,.945V0Z" transform="translate(48.626 103.465) rotate(179.997)" fill="#2f2e41"/>
  <path id="Path_209" data-name="Path 209" d="M163.245,517.628h2.84l1.351-10.955h-4.192Z" transform="translate(-134.289 -416.8)" fill="#a0616a"/>
  <path id="Path_210" data-name="Path 210" d="M0,0H8.927V3.449H2.5A2.5,2.5,0,0,1,0,.945Z" transform="translate(37.274 103.465) rotate(179.997)" fill="#2f2e41"/>
  <path id="Path_211" data-name="Path 211" d="M157.552,342.991l.232,16.217.232,21.314,5.1-.463,2.549-29.423,3.243,29.423h5.262l.53-29.655-1.853-6.487Z" transform="translate(-129.606 -282.152)" fill="#2f2e41"/>
  <path id="Path_212" data-name="Path 212" d="M406.095,363.906a27.383,27.383,0,0,1-10.719-2.544l-.057-.029-.465-11.169c-.135-.395-2.792-8.183-3.242-10.658-.456-2.508,6.153-4.709,6.955-4.966l.182-2.018,7.406-.8.939,2.581,2.657,1a1.314,1.314,0,0,1,.815,1.544l-1.477,6.005,3.607,19.868-.776.034A14.1,14.1,0,0,1,406.095,363.906Z" transform="translate(-368.173 -300.889)" fill="#3f3d56"/>
  <circle id="Ellipse_14" data-name="Ellipse 14" cx="5.332" cy="5.332" r="5.332" transform="translate(27.331 22.104) rotate(-28.663)" fill="#a0616a"/>
  <path id="Path_213" data-name="Path 213" d="M418.048,267.13a1.76,1.76,0,0,0,3.036-.977,1.79,1.79,0,0,0,0-.345,8,8,0,0,1-.356-1.941,1.018,1.018,0,0,1,.186-.477c.81-1.084,2.711.485,3.475-.5.469-.6-.082-1.55.277-2.222.475-.888,1.881-.45,2.762-.936.981-.541.922-2.046.277-2.961a4.658,4.658,0,0,0-3.532-1.8,9.473,9.473,0,0,0-3.991.779,7.975,7.975,0,0,0-3.771,2.614,6.382,6.382,0,0,0-.645,5.434A10.243,10.243,0,0,0,418.048,267.13Z" transform="translate(-387.799 -237.743)" fill="#2f2e41"/>
  <path id="Path_214" data-name="Path 214" d="M327.339,740.317H259.758a.177.177,0,0,1,0-.355h67.581a.177.177,0,1,1,0,.355Z" transform="translate(-259.581 -636.715)" fill="#cacaca"/>
  <path id="Path_215" data-name="Path 215" d="M580.42,264.342a.619.619,0,0,1-.422-.166l-2.866-2.662a.621.621,0,0,1,.845-.91l2.427,2.255,4.8-4.8a.621.621,0,0,1,.878.878l-5.226,5.226A.619.619,0,0,1,580.42,264.342Z" transform="translate(-520.642 -240.138)" fill="#fff"/>
</svg>
