<svg xmlns="http://www.w3.org/2000/svg" width="23.999" height="29.333" viewBox="0 0 23.999 29.333">
  <path id="Vector" d="M12,29.333a2.667,2.667,0,0,0,2.667-2.667H9.333A2.667,2.667,0,0,0,12,29.333ZM1.333,24H22.666a1.333,1.333,0,0,0,.943-2.276l-2.276-2.276V12a9.341,9.341,0,0,0-8-9.227V1.333a1.333,1.333,0,0,0-2.667,0v1.44a9.341,9.341,0,0,0-8,9.227v7.448L.39,21.724A1.333,1.333,0,0,0,1.333,24Zm3.609-3.057A1.333,1.333,0,0,0,5.333,20V12a6.667,6.667,0,0,1,13.333,0v8a1.333,1.333,0,0,0,.391.943l.391.391H4.552Z" fill="#737989"/>
</svg>
