<svg xmlns="http://www.w3.org/2000/svg" width="52" height="52" viewBox="0 0 52 52">
  <g id="Group_44" data-name="Group 44" transform="translate(-765 -1331)">
    <circle id="Ellipse_1493" data-name="Ellipse 1493" cx="26" cy="26" r="26" transform="translate(765 1331)" fill="#ff3d87" opacity="0.1"/>
    <g id="Group_24" data-name="Group 24" transform="translate(-146 122.975)">
      <path id="Vector" d="M12.35,1.9V5.7h-1.5V1.9a.4.4,0,0,0-.55-.37L2.37,4.52A1.343,1.343,0,0,0,1.5,5.79v.67a3.736,3.736,0,0,0-1.5,3V5.79A2.848,2.848,0,0,1,1.84,3.12l7.94-3A1.975,1.975,0,0,1,10.45,0,1.905,1.905,0,0,1,12.35,1.9Z" transform="translate(927.5 1224.05)" fill="#ff3d87"/>
      <path id="Vector-2" data-name="Vector" d="M3,.5v1a.5.5,0,0,1-.49.5H1.055A1.035,1.035,0,0,1,0,1.09a1,1,0,0,1,.29-.8A.951.951,0,0,1,.995,0H2.5A.5.5,0,0,1,3,.5Z" transform="translate(943.495 1236)" fill="#ff3d87"/>
      <path id="Vector-3" data-name="Vector" d="M16.98,5.2H18a1,1,0,0,0,1-1V3.76A3.768,3.768,0,0,0,15.24,0H3.76A3.706,3.706,0,0,0,1.5.76a3.736,3.736,0,0,0-1.5,3v6.73a3.768,3.768,0,0,0,3.76,3.76H15.24A3.768,3.768,0,0,0,19,10.49V10.3a1,1,0,0,0-1-1h-.87A2.171,2.171,0,0,1,15,7.78,2.06,2.06,0,0,1,16.98,5.2ZM11.5,5h-7a.75.75,0,0,1,0-1.5h7a.75.75,0,0,1,0,1.5Z" transform="translate(927.5 1229.75)" fill="#ff3d87"/>
    </g>
  </g>
</svg>
