<svg xmlns="http://www.w3.org/2000/svg" width="589" height="418" viewBox="0 0 589 418">
  <g id="Group_45" data-name="Group 45" transform="translate(-313 -1236)">
    <rect id="Frame_427318731" data-name="Frame 427318731" width="589" height="418" rx="12" transform="translate(313 1236)" fill="#f7f7f7"/>
    <text id="March_2022" data-name="March 2022" transform="translate(350 1265.027)" font-size="16" font-family="Poppins-Bold, Poppins" font-weight="700"><tspan x="0" y="17">March 2023</tspan></text>
    <path id="Vector_1" data-name="Vector 1" d="M0,0,13.467,9.214,0,18.429" transform="translate(832.533 1268.571)" fill="none" stroke="#000" stroke-width="2"/>
    <path id="Vector_1-2" data-name="Vector 1" d="M0,18.429,14.176,9.214,0,0" transform="translate(779.374 1287) rotate(180)" fill="none" stroke="#000" stroke-width="2"/>
    <text id="Sa" transform="translate(350 1318)" font-size="14" font-family="Poppins-Medium, Poppins" font-weight="500"><tspan x="2.526" y="15">Sa</tspan></text>
    <text id="Su" transform="translate(426 1318)" font-size="14" font-family="Poppins-Medium, Poppins" font-weight="500"><tspan x="3.229" y="15">Su</tspan></text>
    <text id="Mo" transform="translate(512 1318)" font-size="14" font-family="Poppins-Medium, Poppins" font-weight="500"><tspan x="4.36" y="15">Mo</tspan></text>
    <text id="Tu" transform="translate(601 1318)" font-size="14" font-family="Poppins-Medium, Poppins" font-weight="500"><tspan x="3.009" y="15">Tu</tspan></text>
    <text id="We" transform="translate(677 1318)" font-size="14" font-family="Poppins-Medium, Poppins" font-weight="500"><tspan x="4.188" y="15">We</tspan></text>
    <text id="Th" transform="translate(752 1318)" font-size="14" font-family="Poppins-Medium, Poppins" font-weight="500"><tspan x="3.509" y="15">Th</tspan></text>
    <text id="Fr" transform="translate(835 1318)" font-size="14" font-family="Poppins-Medium, Poppins" font-weight="500"><tspan x="2.707" y="15">Fr</tspan></text>
    <line id="Line_12" data-name="Line 12" x2="517.478" transform="translate(347.022 1362.165)" fill="none" stroke="#dedede" stroke-width="1"/>
    <ellipse id="Ellipse_15" data-name="Ellipse 15" cx="20" cy="19.5" rx="20" ry="19.5" transform="translate(589 1481)" fill="#01b6a4"/>
    <text id="_4" data-name="4" transform="translate(833 1383)" font-size="14" font-family="Poppins-Regular, Poppins"><tspan x="2.097" y="15">4</tspan></text>
    <text id="_11" data-name="11" transform="translate(832 1437)" font-size="14" font-family="Poppins-Regular, Poppins"><tspan x="2.52" y="15">11</tspan></text>
    <text id="_18" data-name="18" transform="translate(829 1491)" font-size="14" font-family="Poppins-Regular, Poppins"><tspan x="3.343" y="15">18</tspan></text>
    <text id="_25" data-name="25" transform="translate(827 1545)" font-size="14" font-family="Poppins-Regular, Poppins"><tspan x="3.579" y="15">25</tspan></text>
    <text id="_5" data-name="5" transform="translate(353 1437)" font-size="14" font-family="Poppins-Regular, Poppins"><tspan x="2.104" y="15">5</tspan></text>
    <text id="_12" data-name="12" transform="translate(350 1491)" font-size="14" font-family="Poppins-Regular, Poppins"><tspan x="2.735" y="15">12</tspan></text>
    <text id="_19" data-name="19" transform="translate(349 1545)" font-size="14" font-family="Poppins-Regular, Poppins"><tspan x="3.35" y="15">19</tspan></text>
    <text id="_26" data-name="26" transform="translate(347 1599)" font-size="14" font-family="Poppins-Regular, Poppins"><tspan x="3.53" y="15">26</tspan></text>
    <text id="_6" data-name="6" transform="translate(437 1437)" font-size="14" font-family="Poppins-Regular, Poppins"><tspan x="2.055" y="15">6</tspan></text>
    <text id="_13" data-name="13" transform="translate(433 1491)" font-size="14" font-family="Poppins-Regular, Poppins"><tspan x="3.637" y="15">13</tspan></text>
    <text id="_20" data-name="20" transform="translate(430 1545)" font-size="14" font-family="Poppins-Regular, Poppins"><tspan x="4.579" y="15">20</tspan></text>
    <text id="_27" data-name="27" transform="translate(432 1599)" font-size="14" font-family="Poppins-Regular, Poppins"><tspan x="3.653" y="15">27</tspan></text>
    <text id="_7" data-name="7" transform="translate(521 1437)" font-size="14" font-family="Poppins-Regular, Poppins"><tspan x="1.678" y="15">7</tspan></text>
    <text id="_14" data-name="14" transform="translate(516 1491)" font-size="14" font-family="Poppins-Regular, Poppins"><tspan x="3.357" y="15">14</tspan></text>
    <text id="_21" data-name="21" transform="translate(517 1545)" font-size="14" font-family="Poppins-Regular, Poppins"><tspan x="2.735" y="15">21</tspan></text>
    <text id="_28" data-name="28" transform="translate(514 1599)" font-size="14" font-family="Poppins-Regular, Poppins"><tspan x="3.558" y="15">28</tspan></text>
    <text id="_1" data-name="1" transform="translate(605 1383)" font-size="14" font-family="Poppins-Regular, Poppins" opacity="0.6"><tspan x="1.26" y="15">1</tspan></text>
    <text id="_8" data-name="8" transform="translate(602 1437)" font-size="14" font-family="Poppins-Regular, Poppins" opacity="0.6"><tspan x="2.083" y="15">8</tspan></text>
    <text id="_15" data-name="15" transform="translate(598 1491)" fill="#fff" font-size="14" font-family="Poppins-Bold, Poppins" font-weight="700"><tspan x="3.318" y="15">15</tspan></text>
    <text id="_22" data-name="22" transform="translate(596 1545)" font-size="14" font-family="Poppins-Regular, Poppins" opacity="0.6"><tspan x="3.95" y="15">22</tspan></text>
    <text id="_29" data-name="29" transform="translate(596 1599)" font-size="14" font-family="Poppins-Regular, Poppins" opacity="0.6"><tspan x="3.565" y="15">29</tspan></text>
    <text id="_2" data-name="2" transform="translate(684 1383)" font-size="14" font-family="Poppins-Regular, Poppins"><tspan x="1.475" y="15">2</tspan></text>
    <text id="_9" data-name="9" transform="translate(683 1437)" font-size="14" font-family="Poppins-Regular, Poppins"><tspan x="2.09" y="15">9</tspan></text>
    <text id="_16" data-name="16" transform="translate(679 1491)" font-size="14" font-family="Poppins-Regular, Poppins"><tspan x="3.315" y="15">16</tspan></text>
    <text id="_23" data-name="23" transform="translate(677 1545)" font-size="14" font-family="Poppins-Regular, Poppins"><tspan x="3.852" y="15">23</tspan></text>
    <text id="_30" data-name="30" transform="translate(676 1599)" font-size="14" font-family="Poppins-Regular, Poppins"><tspan x="4.481" y="15">30</tspan></text>
    <text id="_3" data-name="3" transform="translate(759 1383)" font-size="14" font-family="Poppins-Regular, Poppins"><tspan x="1.377" y="15">3</tspan></text>
    <text id="_10" data-name="10" transform="translate(754 1437)" font-size="14" font-family="Poppins-Regular, Poppins"><tspan x="3.864" y="15">10</tspan></text>
    <text id="_17" data-name="17" transform="translate(755 1491)" font-size="14" font-family="Poppins-Regular, Poppins"><tspan x="2.938" y="15">17</tspan></text>
    <text id="_24" data-name="24" transform="translate(752 1545)" font-size="14" font-family="Poppins-Regular, Poppins"><tspan x="3.572" y="15">24</tspan></text>
    <text id="_31" data-name="31" transform="translate(755 1599)" font-size="14" font-family="Poppins-Regular, Poppins"><tspan x="2.637" y="15">31</tspan></text>
  </g>
</svg>
