<svg xmlns="http://www.w3.org/2000/svg" xmlns:xlink="http://www.w3.org/1999/xlink" width="202.163" height="142.92" viewBox="0 0 202.163 142.92">
  <defs>
    <linearGradient id="linear-gradient" x1="0.5" y1="1" x2="0.5" gradientUnits="objectBoundingBox">
      <stop offset="0" stop-color="gray" stop-opacity="0.251"/>
      <stop offset="0.54" stop-color="gray" stop-opacity="0.122"/>
      <stop offset="1" stop-color="gray" stop-opacity="0.102"/>
    </linearGradient>
    <linearGradient id="linear-gradient-2" x1="0.5" y1="1" x2="0.5" y2="0" xlink:href="#linear-gradient"/>
  </defs>
  <g id="undraw_medicine_b-1-ol" transform="translate(0.485)">
    <ellipse id="Ellipse_2" data-name="Ellipse 2" cx="17.791" cy="2.858" rx="17.791" ry="2.858" transform="translate(49.2 137.125)" fill="#01b6a4" opacity="0.1"/>
    <ellipse id="Ellipse_3" data-name="Ellipse 3" cx="22.201" cy="2.858" rx="22.201" ry="2.858" transform="translate(141.502 137.205)" fill="#01b6a4" opacity="0.1"/>
    <path id="Path_33" data-name="Path 33" d="M59.38,396.83H77.911v25.257H60.736c-.046.259-.089.52-.137.782H77.911v20.37c-.031-.009-.058-.02-.088-.031-.489-.194-.975-.4-1.461-.617l-.31-.141q-.73-.345-1.461-.73c-.17-.09-.34-.183-.508-.278a30.386,30.386,0,0,1-7.282-5.689c-.062-.06-.121-.124-.183-.183-.3-.321-.586-.646-.867-.979l-.31-.365c-.332-.407-.654-.825-.966-1.249-.046-.062-.089-.124-.137-.183a27.183,27.183,0,0,1-3.141-5.679c-.026-.06-.047-.126-.071-.183q-.376-.968-.666-1.954c-.084-.276-.164-.548-.234-.834-.026-.084-.047-.166-.068-.248A49.923,49.923,0,0,1,59,411.468v-1.461c0-1.689.02-3.389.049-5.087,0-.44.018-.878.027-1.32q.038-1.682.11-3.363c.011-.312.026-.623.042-.933a5.286,5.286,0,0,1,.027-.537C59.3,398.117,59.336,397.473,59.38,396.83Z" transform="translate(-56.94 -335.078)" fill="#01b6a4" opacity="0.1"/>
    <path id="Path_34" data-name="Path 34" d="M117.065,185.3H106.9a77.056,77.056,0,0,1,5.406-7.442c1.51-1.855,3.1-3.663,4.758-5.4Z" transform="translate(-96.094 -151.667)" fill="#01b6a4" opacity="0.1"/>
    <path id="Path_35" data-name="Path 35" d="M79.872,247.09v26.559H61.4c0-.077.013-.155.018-.232.016-.21.033-.42.051-.628.02-.245.042-.491.066-.73s.049-.531.077-.8.053-.533.084-.8.058-.529.091-.792.062-.53.1-.792c.027-.219.057-.436.086-.655.042-.309.086-.619.133-.926a.853.853,0,0,1,.02-.137,63.158,63.158,0,0,1,1.36-6.668,49.316,49.316,0,0,1,2.291-6.756,50.714,50.714,0,0,1,3.447-6.639Z" transform="translate(-58.902 -212.678)" fill="#01b6a4" opacity="0.1"/>
    <path id="Path_36" data-name="Path 36" d="M186.8,120.374v25.259h39.58V120.374Zm0,26.039V168.1c.226.047.451.093.674.131.3.058.6.111.913.157.058.009.119.018.183.024.121.02.245.037.365.053.3.042.608.077.913.1.144.015.29.027.436.038l.352.027h0c.192.015.382.026.57.031.117,0,.234.011.354.015h1.3c.157,0,.314,0,.469-.015h.011a2.462,2.462,0,0,0,.327-.015.772.772,0,0,0,.091,0,1.887,1.887,0,0,0,.27-.013h.064l.612-.047c.2-.018.4-.042.608-.064l.416-.049a36.421,36.421,0,0,0,5.012-1.066c3.692-1.03,7.3-2.47,10.994-3.526,4.771-1.36,10.042-2.029,14.653-.365V146.413Zm39.58-54.159V58.627a50.882,50.882,0,0,0-12.86,1.508c-10.022,2.518-19.015,7.979-26.72,14.954V92.252h1.987v.78H186.8v26.563h39.58V93.034H196.943v-.78ZM277.218,80.9a16.394,16.394,0,0,1-7.174-2.085c-4.263-2.319-7.669-5.9-11.474-8.921A52.68,52.68,0,0,0,230.8,58.855v33.4h56.5l.141-.148Zm5.147-.913,5.458,5.989V78.412a21.653,21.653,0,0,0-5.45,1.563Zm5.458,93.509V146.413H276.193c-.031-.115-.062-.232-.1-.349.035.117.064.234.1.349H230.807V166c.431.32.856.655,1.278,1h0c.455.365.9.75,1.355,1.128l.455.376c.217.183.436.365.657.537q.657.533,1.327,1.052c.221.183.447.347.672.519a91.516,91.516,0,0,0,11.253,7.36q1.32.73,2.664,1.426c.6.3,1.2.608,1.8.9q1.358.663,2.739,1.278h0a100.577,100.577,0,0,0,26.658,7.765q3.066.453,6.155.712V173.489H288ZM230.807,93.034v26.561H287.83V93.034Zm0,27.341v25.259H287.83V120.374Zm61.448-42v8.432l6.966-7.643q-3.462-.559-6.966-.8Zm0,42v25.25h55.461V120.374ZM347.514,175.5l.2-29.083H292.256v43.925a99.448,99.448,0,0,0,10.718-.128h.062q2.556-.161,5.089-.467h.038a93.712,93.712,0,0,0,26.147-6.977m24.1-58.233c-.208-.491-.425-.979-.646-1.461-.413-.913-.849-1.8-1.3-2.688h-4.327v25.248H363.08a54.579,54.579,0,0,0-4.663-21.109Zm-6.272,21.889v25.015a35.834,35.834,0,0,0,7.561-10.2,35.056,35.056,0,0,0,3.371-14.821Zm0-33.4V119.6h3.922a71.215,71.215,0,0,0-3.917-6.582ZM314.526,83.334c-.288-.11-.577-.221-.867-.329a79.174,79.174,0,0,0-9.369-2.816l-10.659,11.7h0l-.2.217.137.15H331.5a81.143,81.143,0,0,0-16.97-8.93Zm18.087,9.708h-39.58l-.778.712v25.84h55.468V107.078a79.024,79.024,0,0,0-15.106-14.045Z" transform="translate(-161.405 -58.624)" fill="#01b6a4" opacity="0.1"/>
    <path id="Path_37" data-name="Path 37" d="M79.872,320.46v13.163H61.4c0-.077.013-.155.018-.232.016-.21.033-.42.051-.628.02-.245.042-.491.066-.73s.049-.531.077-.8.053-.533.084-.8.058-.529.091-.792.062-.529.1-.792c.027-.219.057-.436.086-.656.042-.309.086-.619.133-.926a.852.852,0,0,1,.02-.137,63.157,63.157,0,0,1,1.36-6.668Z" transform="translate(-58.902 -272.652)" fill="#01b6a4" opacity="0.1"/>
    <path id="Path_38" data-name="Path 38" d="M59.38,396.83H77.911v25.257H60.736c-.046.259-.089.52-.137.782H77.911v20.37c-.031-.009-.058-.02-.088-.031-.489-.194-.975-.4-1.461-.617l-.31-.141q-.73-.345-1.461-.73c-.17-.09-.34-.183-.508-.278a30.386,30.386,0,0,1-7.282-5.689c-.062-.06-.121-.124-.183-.183-.3-.321-.586-.646-.867-.979l-.31-.365c-.332-.407-.654-.825-.966-1.249-.046-.062-.089-.124-.137-.183a27.183,27.183,0,0,1-3.141-5.679c-.026-.06-.047-.126-.071-.183q-.376-.968-.666-1.954c-.084-.276-.164-.548-.234-.834-.026-.084-.047-.166-.068-.248A49.923,49.923,0,0,1,59,411.468v-1.461c0-1.689.02-3.389.049-5.087,0-.44.018-.878.027-1.32q.038-1.682.11-3.363c.011-.312.026-.623.042-.933a5.286,5.286,0,0,1,.027-.537C59.3,398.117,59.336,397.473,59.38,396.83Z" transform="translate(-56.94 -335.078)" fill="#01b6a4" opacity="0.1"/>
    <path id="Path_39" data-name="Path 39" d="M153.493,174.785v22.758H139.56V174.785h1.987V167.08H149.7v7.705Z" transform="translate(-114.166 -136.572)" fill="#01b6a4" opacity="0.1"/>
    <rect id="Rectangle_3" data-name="Rectangle 3" width="13.931" height="25.257" transform="translate(25.396 61.751)" fill="#01b6a4" opacity="0.1"/>
    <path id="Path_40" data-name="Path 40" d="M186.8,539.44h13.933v21a36.352,36.352,0,0,1-5.012,1.065l-.416.051c-.2.024-.407.044-.608.064s-.409.035-.612.047h-.064c-.088,0-.183.011-.268.013h-.093c-.11,0-.219.011-.329.015h0c-.155.009-.31.011-.469.013h-1.293l-.352-.013c-.183,0-.38-.02-.57-.033h0l-.351-.026-.436-.04c-.307-.027-.612-.062-.913-.1l-.365-.051-.183-.026c-.3-.047-.606-.1-.913-.157-.225-.038-.447-.086-.674-.131Z" transform="translate(-161.405 -451.649)" fill="#01b6a4" opacity="0.1"/>
    <rect id="Rectangle_4" data-name="Rectangle 4" width="11.488" height="25.444" transform="translate(114.936 35.526)" fill="#01b6a4" opacity="0.1"/>
    <path id="Path_41" data-name="Path 41" d="M437.6,338.19v25.259H380.58v-10.9h30.374v6.427h15.16V338.19Z" transform="translate(-311.178 -276.439)" fill="#01b6a4" opacity="0.1"/>
    <path id="Path_42" data-name="Path 42" d="M485.025,564.96h-.183v16.57q-3.086-.261-6.153-.71a100.584,100.584,0,0,1-26.669-7.782q-3.675-1.654-7.2-3.612a91.9,91.9,0,0,1-11.255-7.36q-1.344-1.03-2.653-2.107c-.6-.5-1.205-1.01-1.813-1.506-.422-.341-.847-.677-1.278-1V537.879H473.2c-.031-.117-.062-.234-.095-.349.035.115.068.232.1.349h11.636v27.07C484.9,564.951,484.965,564.957,485.025,564.96Z" transform="translate(-358.418 -450.087)" fill="#01b6a4" opacity="0.1"/>
    <path id="Path_43" data-name="Path 43" d="M870.706,201.375H863.22v-2.326h3.356V192.12q.436.159.869.327v6.6h3.261Z" transform="translate(-714.319 -167.745)" fill="#01b6a4" opacity="0.1"/>
    <path id="Path_44" data-name="Path 44" d="M807.933,273.649H771.181l.013.009-.016-.009H764.36V248.206h1.932v18.807h8.828V255.874h7.293V247.09H789.9v8.792h7.293v11.138h10.742Z" transform="translate(-633.51 -212.678)" fill="#01b6a4" opacity="0.1"/>
    <path id="Path_45" data-name="Path 45" d="M764.36,396.82v25.259h43.573V396.82Zm55.4,54.992.06-19.993H807.933v-8.947H764.36v43.912a99.465,99.465,0,0,0,10.718-.128h.062q2.556-.161,5.089-.467h.038a93.713,93.713,0,0,0,26.147-6.977" transform="translate(-633.51 -335.069)" fill="#01b6a4" opacity="0.1"/>
    <path id="Path_46" data-name="Path 46" d="M1093.137,539.44H1103.3a35.169,35.169,0,0,1-3.372,14.819,35.849,35.849,0,0,1-7.559,10.2V548.389h.767Z" transform="translate(-901.629 -451.649)" fill="#01b6a4" opacity="0.1"/>
    <path id="Path_47" data-name="Path 47" d="M1106.74,440.659h-10.17V419.55h5.5A54.649,54.649,0,0,1,1106.74,440.659Z" transform="translate(-905.062 -353.649)" fill="#01b6a4" opacity="0.1"/>
    <rect id="Rectangle_5" data-name="Rectangle 5" width="6.155" height="7.977" transform="translate(120.271 42.599)" fill="#01b6a4" opacity="0.1"/>
    <rect id="Rectangle_6" data-name="Rectangle 6" width="6.155" height="1.837" transform="translate(120.271 59.134)" fill="#01b6a4" opacity="0.1"/>
    <rect id="Rectangle_7" data-name="Rectangle 7" width="6.155" height="5.359" transform="translate(120.271 61.751)" fill="#01b6a4" opacity="0.1"/>
    <rect id="Rectangle_8" data-name="Rectangle 8" width="6.155" height="7.977" transform="translate(120.271 75.669)" fill="#01b6a4" opacity="0.1"/>
    <rect id="Rectangle_9" data-name="Rectangle 9" width="6.155" height="7.977" transform="translate(120.271 92.205)" fill="#01b6a4" opacity="0.1"/>
    <path id="Path_48" data-name="Path 48" d="M712.573,660.292a1.02,1.02,0,0,1,.183.011h-.183v1.853H706.42V654.17h6.153Z" transform="translate(-586.149 -545.43)" fill="#01b6a4" opacity="0.1"/>
    <path id="Path_49" data-name="Path 49" d="M712.573,744.71v6.162q-3.086-.261-6.153-.71V744.71Z" transform="translate(-586.149 -619.439)" fill="#01b6a4" opacity="0.1"/>
    <rect id="Rectangle_10" data-name="Rectangle 10" width="26.379" height="0.586" transform="translate(69.402 86.424)" fill="#01b6a4" opacity="0.1"/>
    <rect id="Rectangle_11" data-name="Rectangle 11" width="26.379" height="2.246" transform="translate(69.402 87.79)" fill="#01b6a4" opacity="0.1"/>
    <rect id="Rectangle_12" data-name="Rectangle 12" width="26.379" height="3.612" transform="translate(69.402 97.397)" fill="#01b6a4" opacity="0.1"/>
    <path id="Path_50" data-name="Path 50" d="M459.91,652.15v3.612H439.278q-1.344-1.026-2.655-2.107c-.6-.5-1.2-1.01-1.813-1.5Z" transform="translate(-364.132 -543.779)" fill="#01b6a4" opacity="0.1"/>
    <path id="Path_51" data-name="Path 51" d="M530.3,712.215v3.608h-2.178q-3.672-1.656-7.2-3.613Z" transform="translate(-434.519 -592.873)" fill="#01b6a4" opacity="0.1"/>
    <rect id="Rectangle_13" data-name="Rectangle 13" width="5.193" height="5.193" transform="translate(141.57 64.199)" fill="#01b6a4" opacity="0.1"/>
    <rect id="Rectangle_14" data-name="Rectangle 14" width="5.193" height="5.193" transform="translate(29.136 40.004)" fill="#01b6a4" opacity="0.1"/>
    <rect id="Rectangle_15" data-name="Rectangle 15" width="5.193" height="5.193" transform="translate(29.136 52.066)" fill="#01b6a4" opacity="0.1"/>
    <rect id="Rectangle_16" data-name="Rectangle 16" width="5.193" height="5.193" transform="translate(29.136 64.128)" fill="#01b6a4" opacity="0.1"/>
    <rect id="Rectangle_17" data-name="Rectangle 17" width="5.193" height="5.193" transform="translate(29.136 76.188)" fill="#01b6a4" opacity="0.1"/>
    <rect id="Rectangle_18" data-name="Rectangle 18" width="5.193" height="5.193" transform="translate(29.136 88.25)" fill="#01b6a4" opacity="0.1"/>
    <rect id="Rectangle_19" data-name="Rectangle 19" width="5.193" height="5.193" transform="translate(29.136 100.311)" fill="#01b6a4" opacity="0.1"/>
    <rect id="Rectangle_20" data-name="Rectangle 20" width="5.193" height="5.193" transform="translate(161.394 64.199)" fill="#01b6a4" opacity="0.1"/>
    <rect id="Rectangle_21" data-name="Rectangle 21" width="5.193" height="5.193" transform="translate(141.57 77.008)" fill="#01b6a4" opacity="0.1"/>
    <rect id="Rectangle_22" data-name="Rectangle 22" width="5.193" height="5.193" transform="translate(161.394 77.008)" fill="#01b6a4" opacity="0.1"/>
    <rect id="Rectangle_23" data-name="Rectangle 23" width="5.193" height="5.193" transform="translate(141.57 89.814)" fill="#01b6a4" opacity="0.1"/>
    <rect id="Rectangle_24" data-name="Rectangle 24" width="5.193" height="5.193" transform="translate(161.394 89.814)" fill="#01b6a4" opacity="0.1"/>
    <rect id="Rectangle_25" data-name="Rectangle 25" width="5.193" height="5.193" transform="translate(141.57 102.623)" fill="#01b6a4" opacity="0.1"/>
    <rect id="Rectangle_26" data-name="Rectangle 26" width="5.193" height="5.193" transform="translate(161.394 102.623)" fill="#01b6a4" opacity="0.1"/>
    <rect id="Rectangle_27" data-name="Rectangle 27" width="5.193" height="5.193" transform="translate(141.57 115.432)" fill="#01b6a4" opacity="0.1"/>
    <rect id="Rectangle_28" data-name="Rectangle 28" width="5.193" height="5.193" transform="translate(161.394 115.432)" fill="#01b6a4" opacity="0.1"/>
    <path id="Path_52" data-name="Path 52" d="M775.83,705.679V702.33h5.191V705.2Z" transform="translate(-634.26 -574.092)" fill="#01b6a4" opacity="0.1"/>
    <path id="Path_53" data-name="Path 53" d="M65.24,357v2.971H83.011V357Zm1.771,2.784h-1.45v-2.6h1.461Zm1.769,0H67.32v-2.6H68.78Zm1.766,0H69.085v-2.6h1.461Zm1.769,0H70.856v-2.6h1.461Zm1.767,0H72.622v-2.6h1.461Zm1.769,0H74.391v-2.6h1.461Zm1.769,0H76.161v-2.6h1.461Zm1.767,0H77.928v-2.6h1.461Zm1.767,0H79.7v-2.6h1.461Zm1.767,0H81.463v-2.6h1.461Z" transform="translate(-62.041 -302.52)" fill="#01b6a4" opacity="0.1"/>
    <path id="Path_54" data-name="Path 54" d="M65.24,404.34v2.971H83.011V404.34Zm1.771,2.783h-1.45v-2.595h1.461Zm1.769,0H67.32v-2.595H68.78Zm1.766,0H69.085v-2.595h1.461Zm1.769,0H70.856v-2.595h1.461Zm1.767,0H72.622v-2.595h1.461Zm1.769,0H74.391v-2.595h1.461Zm1.769,0H76.161v-2.595h1.461Zm1.767,0H77.928v-2.595h1.461Zm1.767,0H79.7v-2.595h1.461Zm1.767,0H81.463v-2.595h1.461Z" transform="translate(-62.041 -341.216)" fill="#01b6a4" opacity="0.1"/>
    <path id="Path_55" data-name="Path 55" d="M65.24,451.7v2.976H83.011V451.7Zm1.771,2.783h-1.45v-2.6h1.461Zm1.769,0H67.32v-2.6H68.78Zm1.766,0H69.085v-2.6h1.461Zm1.769,0H70.856v-2.6h1.461Zm1.767,0H72.622v-2.6h1.461Zm1.769,0H74.391v-2.6h1.461Zm1.769,0H76.161v-2.6h1.461Zm1.767,0H77.928v-2.6h1.461Zm1.767,0H79.7v-2.6h1.461Zm1.767,0H81.463v-2.6h1.461Z" transform="translate(-62.041 -379.929)" fill="#01b6a4" opacity="0.1"/>
    <path id="Path_56" data-name="Path 56" d="M65.24,499.06v2.967H83.011V499.06Zm1.771,2.783h-1.45v-2.6h1.461Zm1.769,0H67.32v-2.6H68.78Zm1.766,0H69.085v-2.6h1.461Zm1.769,0H70.856v-2.6h1.461Zm1.767,0H72.622v-2.6h1.461Zm1.769,0H74.391v-2.6h1.461Zm1.769,0H76.161v-2.6h1.461Zm1.767,0H77.928v-2.6h1.461Zm1.767,0H79.7v-2.6h1.461Zm1.767,0H81.463v-2.6h1.461Z" transform="translate(-62.041 -418.641)" fill="#01b6a4" opacity="0.1"/>
    <path id="Path_57" data-name="Path 57" d="M65.66,546.41c.071.279.152.559.236.834V546.6h1.461v2.6h-.781c.024.06.047.126.071.183H83.355V546.41Zm3.469,2.783H67.668v-2.6h1.461Zm1.766,0H69.434v-2.6h1.461Zm1.769,0H71.2v-2.6H72.66Zm1.767,0H72.971v-2.6h1.461Zm1.769,0H74.74v-2.6H76.2Zm1.769,0H76.509v-2.6H77.97Zm1.767,0H78.277v-2.6h1.461Zm1.767,0H80.044v-2.6H81.5Zm1.767,0H81.812v-2.6h1.461Z" transform="translate(-62.384 -457.346)" fill="#01b6a4" opacity="0.1"/>
    <path id="Path_58" data-name="Path 58" d="M88.26,593.77c.046.058.089.124.137.183h.966V595.2c.1.124.206.248.312.365v-1.62h1.461v2.605h-.592c.058.06.115.124.183.183h11.107V593.77Zm4.64,2.781H91.439v-2.595H92.9Zm1.769,0H93.208v-2.595h1.461Zm1.769,0H94.977v-2.595h1.461Zm1.767,0H96.745v-2.595h1.461Zm1.767,0H98.512v-2.595h1.461Zm1.767,0H100.28v-2.595h1.461Z" transform="translate(-80.858 -496.059)" fill="#01b6a4" opacity="0.1"/>
    <path id="Path_59" data-name="Path 59" d="M141.65,641.12c.166.095.336.183.508.278v-.091h1.461v.822l.31.144v-.966h1.461v1.579a.453.453,0,0,0,.088.033v-1.8Z" transform="translate(-124.499 -534.763)" fill="#01b6a4" opacity="0.1"/>
    <path id="Path_60" data-name="Path 60" d="M308,270.126Zm-11.247,53.889ZM285.021,296.6c.035.117.064.234.1.349h0C285.088,296.83,285.057,296.713,285.021,296.6ZM308,270.121ZM197.72,242.78v.78h8.156v-.78Zm99.036,81.235ZM285.021,296.6c.035.117.064.234.1.349h0C285.088,296.83,285.057,296.713,285.021,296.6ZM308,270.121ZM296.756,324.01ZM285.021,296.6c.035.117.064.234.1.349h0C285.088,296.83,285.057,296.713,285.021,296.6Z" transform="translate(-170.332 -209.155)" fill="#01b6a4" opacity="0.1"/>
    <path id="Path_61" data-name="Path 61" d="M334.551,258.354s-.719-.1-.719-1.149a16.418,16.418,0,0,0-.515-3.005h0c0-.009-.446-3.409-1.061-3.949s-1.406-3.714-1.406-3.714a7.486,7.486,0,0,0-.411-2.092,17.775,17.775,0,0,1-1.2-2.573c-.55-1.295-2.841-2.191-2.841-2.191s-4.143-2.4-5.317-3.186h0a1.8,1.8,0,0,1-.3-.225c-.2-.268-1.1-.274-1.1-.274a17.962,17.962,0,0,1-.212-1.875,1.427,1.427,0,0,0-.009-.2,6.317,6.317,0,0,0,2.777-3.436c.022-.069.04-.142.06-.212a.593.593,0,0,0,.356-.321,6.7,6.7,0,0,1,.239-.73,2.749,2.749,0,0,1,.676-.593,2.556,2.556,0,0,0,.7-2.08c-.018-.612-.117-1.229-.079-1.837l.011-.153c.011-.091.024-.183.04-.27.089-.453.285-.88.394-1.329a1.71,1.71,0,0,0-.135-1.342,2.332,2.332,0,0,0-1.839-.739c-.776-.066-1.47.02-1.966-.624a7.009,7.009,0,0,0-.781-.944c-.1-.095-1.1-.7-1.1-.741a4.439,4.439,0,0,0-3.095-.237c-.515.15-1,.394-1.523.517-1.127.267-2.423-.022-3.38.623a3.972,3.972,0,0,0-1.152,1.512q-.365.7-.741,1.4a9.048,9.048,0,0,0-.984,2.39,3.794,3.794,0,0,0-.066.559h0v.3a.982.982,0,0,0,.011.183c.011.057.009.075.015.113s.015.124.026.183.033.161.055.241c.009.035.022.068.033.1.018.062.04.122.064.183.013.031.026.064.04.095a1.707,1.707,0,0,0,.093.183c.015.026.026.049.04.073a2.428,2.428,0,0,0,.168.245c.391.488.966.8,1.391,1.254v.2a6.25,6.25,0,0,0,2.845,5.1c0,.069.009.141.013.21a10.449,10.449,0,0,1-.02,1.627.767.767,0,0,0-.606-.27.874.874,0,0,0-.234.02l-.016-.013h0v.016c-.4.1-.9.517-1.369,1.705,0,0-1.439,1.621-2.534,1.554s-3.869,1.687-3.869,1.687-2.706,1.756-3.287,3.546a24.985,24.985,0,0,1-1.165,2.973l-3.345,6.893h0l-.617,5.469a25.374,25.374,0,0,1,.274,2.8,26.987,26.987,0,0,0,1.4,3.714s4.862,8.543,6.849,8.982l.142-.1a1.165,1.165,0,0,0,.268.1l.409-.289a4.458,4.458,0,0,1-.031.964,25.405,25.405,0,0,0,.581,7.428c.478,1.079.309,15.228.309,15.228l-.068,1.249a.529.529,0,0,0,.016.11l-.016.3.049.026a3.517,3.517,0,0,1-.049,1.189,13.218,13.218,0,0,0-.241,2.1s-1.368,8.742-.719,10.5,1.2,3.681,1.2,3.681.685,2.191.033,2.565-2.505,1-2.124,1.915c.347.844,1.663,3.1,1.859,3.435l-.016.173-.268,2.909a3.651,3.651,0,0,0,.309,1.11,1.913,1.913,0,0,0,1.952,1.22c.183-.013.394-.035.6-.062a25.881,25.881,0,0,0,4.437-1.154,1.809,1.809,0,0,1-.347-.287h0a1,1,0,0,1-.3-.73,21.382,21.382,0,0,0-1.209-3.674c-.038-.089-.058-.141-.058-.141s2.26-2.363,1.884-4.457c0,0-2.5-1.461-1.678-2.262a25.5,25.5,0,0,0,2.3-3.1s.068-8.609,0-9.894a10.645,10.645,0,0,1,.126-2.671c.027-.133.06-.263.095-.391a23.833,23.833,0,0,0,3.44.261c.42,0,.847,0,1.278-.026q0,.183.016.394c.095,2.133.272,5.872.416,7.262.2,1.992,1.335,7.36,1.335,7.36s-2.156,1.384.376,4.795a4.623,4.623,0,0,1-.168,1.415h0a15.474,15.474,0,0,0-.433,1.782,3.142,3.142,0,0,0,.022,1.63c.411.807,2.876.741,2.876.741h0l.06-.011a3.533,3.533,0,0,1,2.609.787c.937.752,4.492.422,6.416.183.754-.095,1.258-.183,1.258-.183a.731.731,0,0,0,.026-.263h0c-.02-.473-.391-1.51-2.9-2.436,0,0-2.363-1.589-2.33-2.973h-.323a2.568,2.568,0,0,1,.327,0s-.926-3.378-.548-3.652-.754-4.017-.754-4.017-.648-6.281-.683-6.721a3.832,3.832,0,0,1,.17-1.114l-.17-3.444s-.033-1.145,0-1.517a7.588,7.588,0,0,0-.079-.966c-.016-.128-.033-.261-.051-.393.886-.225,1.461-.433,1.461-.433l-.1-11.987c.752-1.461.891-4.665.887-6.938,0-1.461-.066-2.542-.066-2.542L328.972,277s.237-2.009-.139-2.449a.422.422,0,0,1,.046-.575,1.911,1.911,0,0,1,.225-.153s-.011-.016-.024-.04a1.819,1.819,0,0,1,.228-.162s-.365-.566-.038-.805c.307.208.581.365.789.493-.015.133-.029.21-.029.21l.088-.183.323.183a24.407,24.407,0,0,0,1.576-3.681,10.734,10.734,0,0,1,1.1-2.465,2.466,2.466,0,0,1,.754-1.484c.617-.438.478-3.613.478-3.613a7.784,7.784,0,0,1,.582-2.33C335.337,259.265,334.551,258.354,334.551,258.354Zm-30.814-1.408.031.765-.314-.506Z" transform="translate(-250.356 -189.03)" fill="url(#linear-gradient)"/>
    <path id="Path_62" data-name="Path 62" d="M467.772,492.218l-.394,1.68s-3.159-1.612-3.728-3.661a2.317,2.317,0,0,1,.953-2.826l2.943,1.247Z" transform="translate(-387.601 -409.119)" fill="#fff"/>
    <path id="Path_63" data-name="Path 63" d="M467.772,492.218l-.394,1.68s-3.159-1.612-3.728-3.661a2.317,2.317,0,0,1,.953-2.826l2.943,1.247Z" transform="translate(-387.601 -409.119)" opacity="0.1"/>
    <path id="Path_64" data-name="Path 64" d="M357.717,797.072a22.7,22.7,0,0,1-4.93,1.209,1.876,1.876,0,0,1-1.915-1.212,3.669,3.669,0,0,1-.3-1.1l.261-2.894.139-1.541,4.267-1.108.6,1.848.057.141a21.4,21.4,0,0,1,1.187,3.652,1,1,0,0,0,.3.721,1.737,1.737,0,0,0,.332.29Z" transform="translate(-295.273 -656.803)" fill="#fff"/>
    <path id="Path_65" data-name="Path 65" d="M440.29,794.742a.731.731,0,0,1-.026.261s-6.248,1.042-7.526,0a3.385,3.385,0,0,0-2.629-.771s-2.417.066-2.821-.73a3.17,3.17,0,0,1-.02-1.621,15.446,15.446,0,0,1,.424-1.773l.1-.077.575-.462,6.734-.2h.051c-.033,1.377,2.286,2.956,2.286,2.956C439.9,793.239,440.26,794.271,440.29,794.742Z" transform="translate(-357.891 -655.944)" fill="#fff"/>
    <path id="Path_66" data-name="Path 66" d="M440.294,805.981a.745.745,0,0,1-.027.261s-6.246,1.043-7.524,0a3.385,3.385,0,0,0-2.627-.771s-2.419.066-2.821-.73a3.167,3.167,0,0,1-.022-1.621,6.02,6.02,0,0,1,2.978.878,6.613,6.613,0,0,0,3.259,1.747C434.219,805.791,438.468,805.926,440.294,805.981Z" transform="translate(-357.895 -667.184)" opacity="0.1"/>
    <path id="Path_67" data-name="Path 67" d="M359.073,825.591a22.7,22.7,0,0,1-4.93,1.209,1.871,1.871,0,0,1-1.914-1.214,3.969,3.969,0,0,0,2.317.272,20.662,20.662,0,0,1,4.2-.548A1.8,1.8,0,0,0,359.073,825.591Z" transform="translate(-296.63 -685.322)" opacity="0.1"/>
    <path id="Path_68" data-name="Path 68" d="M391.7,303.955c-2.41-.937-5.511-4.032-4.736-5.478a3.235,3.235,0,0,0,.3-1.161,10.6,10.6,0,0,0,.022-1.643,22.5,22.5,0,0,0-.323-2.673s7.524.17,7.086,1.278a4.143,4.143,0,0,0-.113,1.521c.035.632.126,1.346.221,1.95.131.829.263,1.461.263,1.461s-.46.645-.73.679S395.163,305.29,391.7,303.955Z" transform="translate(-324.926 -250.206)" fill="#cf6f80"/>
    <path id="Path_69" data-name="Path 69" d="M357.037,792.408l-.057.062c-2.249-2.721-4.97.67-4.97.67l-.04-.071.139-1.541,4.267-1.108.6,1.848Z" transform="translate(-296.417 -656.803)" opacity="0.1"/>
    <path id="Path_70" data-name="Path 70" d="M437.474,789.529a4.321,4.321,0,0,0-2.52.74c-.876.774-5.112.168-4.93,0a.6.6,0,0,0,.095-.278l.575-.462,6.734-.2C437.454,789.452,437.474,789.529,437.474,789.529Z" transform="translate(-360.215 -655.911)" opacity="0.1"/>
    <path id="Path_71" data-name="Path 71" d="M351.516,657.266a5.075,5.075,0,0,0-.278.937,10.719,10.719,0,0,0-.126,2.659c.068,1.278,0,9.843,0,9.843a26.206,26.206,0,0,1-2.249,3.089c-.805.805,1.643,2.251,1.643,2.251.365,2.082-1.848,4.433-1.848,4.433-2.25-2.721-4.97.672-4.97.672s-1.479-2.556-1.848-3.469,1.444-1.545,2.082-1.915-.031-2.556-.031-2.556-.539-1.915-1.178-3.663.7-10.446.7-10.446a13.482,13.482,0,0,1,.236-2.083,3.484,3.484,0,0,0,.049-1.183c-.011-.133-.024-.245-.033-.32s-.016-.11-.016-.11l.026-.044.913-1.7S351.954,656.194,351.516,657.266Z" transform="translate(-288.097 -545.013)" fill="#01b6a4"/>
    <path id="Path_72" data-name="Path 72" d="M428.639,686.424a4.359,4.359,0,0,0-2.52.73c-.876.765-5.112.168-4.93,0s.168-1.411.168-1.411c-2.485-3.393-.365-4.769-.365-4.769s-1.11-5.341-1.311-7.322c-.141-1.384-.314-5.1-.407-7.227-.04-.913-.064-1.541-.064-1.541l2.03-.409.261-.053,4.9-.982s.135.913.226,1.66a7.769,7.769,0,0,1,.077.962c-.033.365,0,1.508,0,1.508l.166,3.427a3.891,3.891,0,0,0-.166,1.108c.033.436.67,6.685.67,6.685s1.108,3.728.73,4S428.639,686.424,428.639,686.424Z" transform="translate(-351.38 -553.008)" fill="#01b6a4"/>
    <path id="Path_73" data-name="Path 73" d="M394.6,294.278a4.144,4.144,0,0,0-.113,1.521,6.254,6.254,0,0,1-6.65-.124A22.507,22.507,0,0,0,387.51,293S395.034,293.166,394.6,294.278Z" transform="translate(-325.468 -250.206)" opacity="0.1"/>
    <path id="Path_74" data-name="Path 74" d="M386.323,249.928a6.184,6.184,0,0,1-.307,1.937,6.248,6.248,0,0,1-12.186-1.788v-.15a6.248,6.248,0,1,1,12.5,0Z" transform="translate(-314.286 -209.891)" fill="#cf6f80"/>
    <path id="Path_75" data-name="Path 75" d="M391.7,323.279c-2.41-.937-5.511-4.032-4.736-5.478a3.236,3.236,0,0,0,.3-1.161l3.3,2.711,2.041,1.674,1.552-3.951c.131.829.263,1.461.263,1.461s-.46.645-.73.679S395.163,324.614,391.7,323.279Z" transform="translate(-324.926 -269.529)" opacity="0.1"/>
    <path id="Path_76" data-name="Path 76" d="M342.863,275.332l-2.755,46.286-3.593.236-9.3-26.839,1.526-31.863.321-6.732,4.137,3.4,2.043,1.674,1.6-4.066,2.971,2.589Z" transform="translate(-267.553 -209.6)" fill="#01b6a4"/>
    <path id="Path_77" data-name="Path 77" d="M359.86,657.331a5.082,5.082,0,0,0-.278.937,26.473,26.473,0,0,1-7.534-2.354l-.049-.026.016-.294.009-.153.913-1.7S360.3,656.26,359.86,657.331Z" transform="translate(-296.442 -545.079)" opacity="0.1"/>
    <path id="Path_78" data-name="Path 78" d="M421.233,670.88a18.492,18.492,0,0,1-2.019.23c-.04-.913-.064-1.541-.064-1.541l2.03-.409Z" transform="translate(-351.331 -557.683)" opacity="0.1"/>
    <path id="Path_79" data-name="Path 79" d="M436.823,665.15a14.175,14.175,0,0,1-5.1.48l-.026-1.158,4.9-.982S436.732,664.394,436.823,665.15Z" transform="translate(-361.59 -553.049)" opacity="0.1"/>
    <path id="Path_80" data-name="Path 80" d="M325.674,380.985c-7.486,1.278-14.342-2.386-14.342-2.386l.066-1.242s.17-14.076-.3-15.155a25.66,25.66,0,0,1-.572-7.391c.267-.84-.973-13.435-.973-13.435l-.2-5.112L302,333.286l3.287-6.851a24.721,24.721,0,0,0,1.143-2.958c.572-1.778,3.225-3.526,3.225-3.526s2.721-1.746,3.8-1.68,2.485-1.545,2.485-1.545c1.041-2.653,1.983-1.452,1.983-1.452a2.37,2.37,0,0,1-.051.393c-.365,2.912,5.9,12.115,5.994,12.277h0l.6,14.545.6,18.407Z" transform="translate(-255.571 -268.192)" opacity="0.1"/>
    <path id="Path_81" data-name="Path 81" d="M324.55,380.936c-7.486,1.278-14.344-2.386-14.344-2.386l.068-1.242s.17-14.076-.3-15.155a25.527,25.527,0,0,1-.57-7.391c.268-.84-.973-13.435-.973-13.435l-.2-5.112-7.355-2.989,3.287-6.851a25.1,25.1,0,0,0,1.143-2.958c.57-1.778,3.225-3.526,3.225-3.526s2.721-1.746,3.794-1.68,2.485-1.545,2.485-1.545c1.043-2.653,2.191-1.452,2.191-1.452,0,.126-.11.183-.051.393.8,2.825,5.7,12.115,5.794,12.277h0l.6,14.545.6,18.407Z" transform="translate(-254.648 -268.143)" fill="#fff"/>
    <path id="Path_82" data-name="Path 82" d="M388.636,330.193c-.805-.336-5.07-5.206-5.07-5.206v-1.108c-.155-.365-1.077-.142-1.826.113l.321-6.732.365.3C383.226,320.386,388.543,330.03,388.636,330.193Z" transform="translate(-320.752 -270.036)" opacity="0.1"/>
    <path id="Path_83" data-name="Path 83" d="M389.738,327.983c-.807-.336-5.072-5.206-5.072-5.206v-1.108c-.155-.365-1.077-.142-1.826.113l.323-6.732.365.3C384.33,318.176,389.649,327.822,389.738,327.983Z" transform="translate(-321.651 -268.23)" fill="#fff"/>
    <path id="Path_84" data-name="Path 84" d="M351.271,516.487c.1,0,5.206-.537,5.206-.537s3.091,6.078,2.889,7.557-.57,2.788-1.813,2.556a55.2,55.2,0,0,0-6.692.183Z" transform="translate(-295.51 -432.448)" opacity="0.1"/>
    <path id="Path_85" data-name="Path 85" d="M350.161,514.277c.1,0,5.206-.537,5.206-.537s3.089,6.08,2.889,7.557-.571,2.788-1.813,2.556a55.207,55.207,0,0,0-6.692.183Z" transform="translate(-294.603 -430.641)" fill="#fff"/>
    <path id="Path_86" data-name="Path 86" d="M360.572,501.05s4.685,2.518,4.786,3.287-2.385-.336-2.921-.469a6.685,6.685,0,0,0-1.075-.168l-3.581.1Z" transform="translate(-301.167 -420.268)" fill="#cf6f80"/>
    <circle id="Ellipse_4" data-name="Ellipse 4" cx="0.493" cy="0.493" r="0.493" transform="translate(66.084 59.485)" opacity="0.1"/>
    <circle id="Ellipse_5" data-name="Ellipse 5" cx="0.493" cy="0.493" r="0.493" transform="translate(66.084 59.284)" fill="#3f3d56"/>
    <circle id="Ellipse_6" data-name="Ellipse 6" cx="0.493" cy="0.493" r="0.493" transform="translate(66.992 80.826)" opacity="0.1"/>
    <circle id="Ellipse_7" data-name="Ellipse 7" cx="0.493" cy="0.493" r="0.493" transform="translate(66.992 80.623)" fill="#3f3d56"/>
    <circle id="Ellipse_8" data-name="Ellipse 8" cx="0.493" cy="0.493" r="0.493" transform="translate(66.575 70.155)" opacity="0.1"/>
    <circle id="Ellipse_9" data-name="Ellipse 9" cx="0.493" cy="0.493" r="0.493" transform="translate(66.575 69.954)" fill="#3f3d56"/>
    <path id="Path_87" data-name="Path 87" d="M436.1,354.672s.336.5,0,.739.033.805.033.805-.838.491-.469.933.135,2.438.135,2.438l-1.008,1.669s.06,1.075.064,2.529c0,2.268-.133,5.456-.871,6.909l.1,11.925a16.232,16.232,0,0,1-6.484.9l-.438-19.135s.639-10.851.875-12.933a21.67,21.67,0,0,0,.168-3.259,36.412,36.412,0,0,0-.438-4.769s-.365-6.549-.4-8.363c-.016-.867.029-3.4.08-5.8.057-2.631.121-5.112.121-5.112l-.666-5.273s.666-.068.867.2a1.921,1.921,0,0,0,.292.225h0c1.15.778,5.215,3.17,5.215,3.17s2.25.895,2.788,2.176a18.969,18.969,0,0,0,1.174,2.556,7.891,7.891,0,0,1,.4,2.082s.774,3.159,1.379,3.694,1.046,3.938,1.046,3.938l-5.341,4.2s-.469,6.986-.57,7.256S436.1,354.672,436.1,354.672Z" transform="translate(-357.666 -271.343)" fill="#fff"/>
    <path id="Path_88" data-name="Path 88" d="M436.244,354.411s.334.5,0,.74.031.805.031.805-.833.5-.467.938.135,2.438.135,2.438L434.935,361s.06,1.076.066,2.529c0,2.268-.133,5.456-.871,6.909l.1,11.925a16.258,16.258,0,0,1-6.486.9l-.436-19.135s.639-10.851.875-12.933a21.47,21.47,0,0,0,.166-3.259,36.639,36.639,0,0,0-.436-4.769s-.365-6.549-.4-8.363c-.016-.867.031-3.4.08-5.8.057-2.631.121-5.112.121-5.112l-.88-5.344s.88,0,1.083.272a1.731,1.731,0,0,0,.292.225h0c1.15.778,5.217,3.17,5.217,3.17s2.248.895,2.786,2.176a18.663,18.663,0,0,0,1.176,2.556,7.8,7.8,0,0,1,.4,2.082s.774,3.159,1.379,3.694,1.041,3.931,1.041,3.931l-5.341,4.2s-.469,6.986-.572,7.256S436.244,354.411,436.244,354.411Z" transform="translate(-357.609 -271.082)" fill="#fff"/>
    <path id="Path_89" data-name="Path 89" d="M430.755,327.225l.482,1.406-2.538,2.556c.057-2.629.121-5.112.121-5.112l-.88-5.344s.88,0,1.083.272a1.662,1.662,0,0,0,.292.223h0l2.158,6.226Z" transform="translate(-358.516 -272.872)" opacity="0.1"/>
    <path id="Path_90" data-name="Path 90" d="M429.646,325.015l.484,1.406-2.538,2.556c.057-2.631.121-5.112.121-5.112l-.882-5.344s.882,0,1.083.272a1.83,1.83,0,0,0,.292.225h0l2.16,6.224Z" transform="translate(-357.609 -271.066)" fill="#fff"/>
    <path id="Path_91" data-name="Path 91" d="M386.323,249.928a6.184,6.184,0,0,1-.307,1.937.261.261,0,0,1-.2-.049,8.06,8.06,0,0,0-1.851-4.5,4.727,4.727,0,0,0-1-1.041,1.965,1.965,0,0,0-1.362-.385c-.548.075-1.032.447-1.585.495-.73.06-1.384-.445-2.109-.471a2.072,2.072,0,0,0-1.55.719,4.252,4.252,0,0,0-.831,1.541,9.017,9.017,0,0,0-.464,2.659c-.009.511-.058,1.152-.533,1.338a2.728,2.728,0,0,0-.688-2.083l-.011-.011v-.15a6.248,6.248,0,1,1,12.5,0Z" transform="translate(-314.286 -209.891)" opacity="0.1"/>
    <path id="Path_92" data-name="Path 92" d="M374.12,221.738a4.3,4.3,0,0,0-3.035-.237c-.506.15-.982.393-1.5.515-1.1.265-2.374-.022-3.314.619a3.963,3.963,0,0,0-1.128,1.5l-.73,1.391a9.028,9.028,0,0,0-.966,2.374,3.031,3.031,0,0,0,.466,2.45c.387.491.959.8,1.379,1.262a2.738,2.738,0,0,1,.687,2.082c.477-.183.522-.825.533-1.337a9.015,9.015,0,0,1,.464-2.658,4.238,4.238,0,0,1,.831-1.541,2.076,2.076,0,0,1,1.55-.719c.73.026,1.386.529,2.109.469.548-.046,1.033-.42,1.585-.493a1.957,1.957,0,0,1,1.362.385,4.679,4.679,0,0,1,1,1.041,8.04,8.04,0,0,1,1.853,4.5c.206.152.5-.046.606-.279a6.667,6.667,0,0,1,.236-.73,2.693,2.693,0,0,1,.661-.588,2.584,2.584,0,0,0,.69-2.069,10.305,10.305,0,0,1-.026-2.249c.086-.453.279-.876.385-1.324a1.731,1.731,0,0,0-.131-1.335,2.248,2.248,0,0,0-1.8-.73c-.761-.066-1.442.018-1.928-.623a7,7,0,0,0-.767-.939C375.1,222.381,374.12,221.778,374.12,221.738Z" transform="translate(-305.743 -191.621)" fill="#512e4e"/>
    <path id="Path_93" data-name="Path 93" d="M302.272,418.658l-1.908-3.528-.6,5.443a25.239,25.239,0,0,1,.268,2.788,26.807,26.807,0,0,0,1.377,3.694s4.771,8.5,6.719,8.936l6.582-4.7-1.746-2.217s-.6-.236-.756,0c0,0-3.241-5.576-3.577-5.98a2.015,2.015,0,0,1-.27-1.209s-.5-.537-.336-1.041-.973-2.251-.973-2.251l1.041-.973Z" transform="translate(-253.74 -350.036)" opacity="0.1"/>
    <path id="Path_94" data-name="Path 94" d="M298.658,412.93l-.5.4-.6,5.443a25.226,25.226,0,0,1,.268,2.788,26.8,26.8,0,0,0,1.379,3.694s4.769,8.5,6.717,8.936l6.584-4.7-1.747-2.217s-.6-.236-.756,0c0,0-3.241-5.576-3.577-5.98a2.008,2.008,0,0,1-.268-1.209s-.5-.537-.336-1.041-.975-2.251-.975-2.251l1.041-.973Z" transform="translate(-251.934 -348.238)" fill="#fff"/>
    <path id="Path_95" data-name="Path 95" d="M457.837,515.152c.365.444.135,2.436.135,2.436l-1.008,1.669s.06,1.077.064,2.529l-1.694.53a1.006,1.006,0,0,1-1.306-.991l.292-9.423,3.953,1.512c-.336.234.033.807.033.807S457.468,514.708,457.837,515.152Z" transform="translate(-379.84 -429.137)" opacity="0.1"/>
    <path id="Path_96" data-name="Path 96" d="M458.939,514.05c.365.444.135,2.438.135,2.438l-1.008,1.669s.06,1.075.066,2.529l-1.725.539a.986.986,0,0,1-1.278-.971l.294-9.453,3.955,1.512c-.338.234.031.805.031.805S458.573,513.608,458.939,514.05Z" transform="translate(-380.74 -428.238)" fill="#fff"/>
    <path id="Path_97" data-name="Path 97" d="M469.012,497.418s-.268,1.714-.94,1.815-.973,2.773-1.643,2.679-.226-2.485-.2-2.949-.73-2.385-.166-2.821,2.35,0,2.35,0Z" transform="translate(-389.504 -416.098)" fill="#cf6f80"/>
    <path id="Path_98" data-name="Path 98" d="M467.356,420.246l1.267-2.556a16.594,16.594,0,0,1,.5,2.989c0,1.041.7,1.143.7,1.143s.772.913.365,1.578a7.657,7.657,0,0,0-.572,2.319s.133,3.157-.471,3.593a2.446,2.446,0,0,0-.73,1.479,10.71,10.71,0,0,0-1.075,2.452A24.353,24.353,0,0,1,465.8,436.9s.772-3.964-3.728-5.677c0,0-.035-1.346.3-1.715s.86-.537.531-2.4a21.773,21.773,0,0,1-.1-4.539,28.583,28.583,0,0,1,1.008-3.237Z" transform="translate(-386.418 -352.129)" opacity="0.1"/>
    <path id="Path_99" data-name="Path 99" d="M469.613,415.69l1.106.365a16.542,16.542,0,0,1,.506,2.989c0,1.041.7,1.143.7,1.143s.772.913.365,1.578a7.637,7.637,0,0,0-.57,2.319s.133,3.157-.471,3.593a2.479,2.479,0,0,0-.739,1.479,10.717,10.717,0,0,0-1.074,2.452,24.345,24.345,0,0,1-1.547,3.661s.774-3.964-3.728-5.677c0,0-.033-1.346.3-1.714s.86-.537.531-2.4a21.775,21.775,0,0,1-.095-4.539,28.587,28.587,0,0,1,1.008-3.237Z" transform="translate(-388.127 -350.494)" fill="#fff"/>
    <path id="Path_100" data-name="Path 100" d="M360.15,775.89s1.764-1.108,2.921-.3S360.15,775.89,360.15,775.89Z" transform="translate(-303.104 -644.438)" opacity="0.1"/>
    <path id="Path_101" data-name="Path 101" d="M435.21,759.746a3.571,3.571,0,0,1,2.872,1.211C439.393,762.368,435.21,759.746,435.21,759.746Z" transform="translate(-364.459 -631.721)" opacity="0.1"/>
    <g id="Group_5" data-name="Group 5" transform="translate(57.637 33.72)" opacity="0.1">
      <path id="Path_102" data-name="Path 102" d="M390.468,256.777a2.71,2.71,0,0,0-.663.59,6.69,6.69,0,0,0-.234.73c-.1.237-.4.431-.606.281a8.074,8.074,0,0,0-1.853-4.5,4.678,4.678,0,0,0-1-1.041,1.963,1.963,0,0,0-1.364-.385c-.548.075-1.03.447-1.583.493-.73.062-1.386-.444-2.111-.469a2.067,2.067,0,0,0-1.548.721,4.228,4.228,0,0,0-.831,1.539,9.026,9.026,0,0,0-.464,2.658c-.011.509-.058,1.145-.53,1.335a2.511,2.511,0,0,1,0,.405c.475-.183.522-.825.533-1.337a9.015,9.015,0,0,1,.464-2.658,4.238,4.238,0,0,1,.831-1.541,2.073,2.073,0,0,1,1.548-.719c.73.026,1.388.53,2.111.469.548-.046,1.033-.42,1.583-.493a1.963,1.963,0,0,1,1.364.385,4.678,4.678,0,0,1,1,1.041,8.052,8.052,0,0,1,1.853,4.5c.206.152.5-.046.606-.279a7.078,7.078,0,0,1,.234-.73,2.7,2.7,0,0,1,.663-.588,2.584,2.584,0,0,0,.69-2.069v-.069A2.4,2.4,0,0,1,390.468,256.777Z" transform="translate(-375.07 -250.773)"/>
      <path id="Path_103" data-name="Path 103" d="M365.3,263.135c-.42-.462-.993-.771-1.379-1.26a2.673,2.673,0,0,1-.531-1.5,2.812,2.812,0,0,0,.531,1.9c.385.491.959.8,1.379,1.262a2.739,2.739,0,0,1,.688,1.629,2.738,2.738,0,0,0-.688-2.032Z" transform="translate(-363.384 -257.261)"/>
      <path id="Path_104" data-name="Path 104" d="M451.463,243.662c-.108.447-.3.873-.387,1.324a4.218,4.218,0,0,0-.057.913,3.544,3.544,0,0,1,.057-.519c.088-.453.279-.876.387-1.324a2.244,2.244,0,0,0,.06-.756A2.534,2.534,0,0,1,451.463,243.662Z" transform="translate(-435.014 -243.3)"/>
    </g>
    <ellipse id="Ellipse_10" data-name="Ellipse 10" cx="17.791" cy="2.858" rx="17.791" ry="2.858" transform="translate(6.356 133.161)" fill="#01b6a4" opacity="0.1"/>
    <rect id="Rectangle_29" data-name="Rectangle 29" width="1.145" height="25.776" transform="translate(23.576 81.278)" fill="#535461"/>
    <path id="Path_105" data-name="Path 105" d="M152.977,636.679l-.071,1.161-.1,1.643-.042.683-.1,1.643-.044.683-.1,1.643-1.154,18.637a3.159,3.159,0,0,1-3.151,2.962h-6a3.157,3.157,0,0,1-3.15-2.962l-1.148-18.65-.1-1.643-.042-.683-.1-1.643-.042-.683-.1-1.643-.073-1.161a1.643,1.643,0,0,1,1.643-1.736h12.272a1.632,1.632,0,0,1,1.614,1.749Z" transform="translate(-121.063 -529.703)" fill="#3f3d56"/>
    <path id="Path_106" data-name="Path 106" d="M105.972,592.24l-.1,1.638H90.682l-.1-1.638Z" transform="translate(-74.129 -484.103)" fill="#9d9cb5"/>
    <path id="Path_107" data-name="Path 107" d="M106.474,604.95l-.1,1.64h-14.9l-.1-1.64Z" transform="translate(-74.774 -494.492)" fill="#9d9cb5"/>
    <path id="Path_108" data-name="Path 108" d="M106.975,617.68l-.1,1.638H92.262l-.1-1.638Z" transform="translate(-75.42 -504.898)" fill="#9d9cb5"/>
    <path id="Path_109" data-name="Path 109" d="M62.448,533.858A29.766,29.766,0,0,1,71.9,546.226a29.708,29.708,0,0,1-14.7-5.1A29.721,29.721,0,0,1,47.75,528.76,29.687,29.687,0,0,1,62.448,533.858Z" transform="translate(-47.744 -442.919)" fill="#01b6a4"/>
    <path id="Path_110" data-name="Path 110" d="M47.72,528.76s8.341,4.629,11.016,8.461,13.137,9.005,13.137,9.005" transform="translate(-47.72 -442.919)" fill="none" stroke="#535461" stroke-miterlimit="10" stroke-width="2"/>
    <path id="Path_111" data-name="Path 111" d="M116,491.035a16.211,16.211,0,0,1,5.145,6.73A14.695,14.695,0,0,1,108,488.26,16.166,16.166,0,0,1,116,491.035Z" transform="translate(-96.993 -409.813)" fill="#01b6a4"/>
    <path id="Path_112" data-name="Path 112" d="M108,488.26s4.539,2.52,5.994,4.6,7.152,4.9,7.152,4.9" transform="translate(-96.993 -409.813)" fill="none" stroke="#535461" stroke-miterlimit="10" stroke-width="2"/>
    <path id="Path_113" data-name="Path 113" d="M186.24,512.205a22.361,22.361,0,0,0-5.05,10.568,20.323,20.323,0,0,0,15.093-16.594A22.379,22.379,0,0,0,186.24,512.205Z" transform="translate(-156.82 -424.461)" fill="#01b6a4"/>
    <path id="Path_114" data-name="Path 114" d="M196.286,506.19s-5.43,4.7-6.811,7.932-8.286,8.66-8.286,8.66" transform="translate(-156.82 -424.47)" fill="none" stroke="#535461" stroke-miterlimit="10" stroke-width="2"/>
    <path id="Path_115" data-name="Path 115" d="M863.45,312.38s-3.015-15-1.861-16.864c0,0,.042-1.735-.027-3.946v-.254a5.616,5.616,0,0,0,.634.365,5.127,5.127,0,0,0,3.451.446l-.913-1.017a1.685,1.685,0,0,1-.495-.827,1.733,1.733,0,0,1,.2-.895c.867-2.191.913-4.946-.758-6.619-1.411-1.406-1.755-3.221-3.287-4.5a9.493,9.493,0,0,1-2.315-3.652,20.539,20.539,0,0,1-1.267-3.456c-.219-.933-.307-1.9-.608-2.81a3.577,3.577,0,0,0-1.747-2.2,6.6,6.6,0,0,1-.949-.418,4.1,4.1,0,0,1-.875-1.028c-1.382-1.826-6.011-.75-8.2-.009a4.613,4.613,0,0,0-1.621.9l.02-.033c.016-.027.037-.055.055-.082a2.881,2.881,0,0,0-.613.685,16.421,16.421,0,0,0-.719,1.643c-.321.648-2.109,2.458-1.34,3.186a.645.645,0,0,0,.183.117,1.579,1.579,0,0,0,.913.091l-.033.079a5.337,5.337,0,0,0-.4,2.025,5.48,5.48,0,0,0,5.529,5.432,5.583,5.583,0,0,0,1.693-.261c.013.069.024.139.036.208a.638.638,0,0,0,.013.082h0l-.1.135a.187.187,0,0,0-.016-.024l-2.867,4.006c-.438.309-2.962,2.134-3.1,3.5-.15,1.5-.3,3.254-.3,3.254l-.02.376a1.129,1.129,0,0,1-.913.247c-.895-.146-.895,3.287-.895,3.287s-.6.548-1,.073-1.49,1.134-1.49,1.134l-6.774.292h0l-.155.009-.365-1.13a.477.477,0,0,0-.6-.3.546.546,0,0,0-.082.035l-.026.015-.047.033-.024.022a.371.371,0,0,0-.036.038l-.022.026-.011.011h0a.46.46,0,0,0-.066.409l.314.97c-1.307.263-2.644,1-1.554,3.046L822.47,297.2l1.788,1.5,9.228,1.9c-.122.219-.042.537.34.984,1.643,1.93,4.638,2.454,5.843,2.589a10.38,10.38,0,0,0,1.185,2.008l-.1,1.923s-3.051,14.654-3.61,15.4a8.7,8.7,0,0,0,.772-1.017c-.886,3.011-2.124,7.132-2.449,7.749-.522.986-1.006,4.975-.411,5.231a5.008,5.008,0,0,0,1.45-.016v.33l-.033,12.524s.15,7.681-.261,8.414a7.16,7.16,0,0,0-.52,2.268,22.255,22.255,0,0,1-2.945,4.247.2.2,0,0,1-.029.026l-.04-.285a6.212,6.212,0,0,1-5.027,1.864s-2.083,1.355,1.006,1.428,7.035-.11,7.035-.11,2.755-4.2,5.063-3.652v3.182h.707v-3.234a2.9,2.9,0,0,0,1.258-1.9,2.315,2.315,0,0,0-.825-2.142,1.369,1.369,0,0,1-.451-1l-.026.022a1.927,1.927,0,0,0-.024-.2,18.222,18.222,0,0,1,.44-7.543c1.229-3.44,1.6-8.231.707-11.083a25.477,25.477,0,0,1-.71-2.777c-.022-.119-.042-.232-.06-.338a14.4,14.4,0,0,1,1.813.365c2.072.572,6.606.677,10.477.646.009.106.02.217.033.329a11.96,11.96,0,0,0,.431,2.286c.486,1.461.708,7.9.708,7.9s.626,5.3.285,7.45c-.183,1.2-.365,2.4-.469,3.61v.024s-1.026,2.921-1.776,4.508c-.018.04-.038.08-.057.119a2.376,2.376,0,0,0-.586.13s-1.006,2.008-2.008,2.341-.67,1.426,1.6,1.024,5.7-.73,5.7-.73l.148-2.049.7-.873-.183,2.043.743-.146-.1-2.485,1.141-1.428s1.379-1.227-.67-3.641v.053c-.022-.035-.042-.071-.066-.106v-.011a3.9,3.9,0,0,1-.115-3.246c.895-3.144,1.415-6,1.415-6s2-7.645-.4-11.262h.106a6.084,6.084,0,0,1-.517-1.607q-.018-.1-.033-.2a13.175,13.175,0,0,0,4.943-1.117C865.015,333.411,864.159,315.269,863.45,312.38ZM840.9,299.727v.037l-.365.018Zm-1.253.173a.4.4,0,0,0-.164.079,1.62,1.62,0,0,0-.287.75l-.57-.128s-.4-.086-.975-.183l-.272-.274C838.123,300.083,838.9,299.992,839.642,299.9Z" transform="translate(-681.01 -226.249)" fill="url(#linear-gradient-2)"/>
    <path id="Path_116" data-name="Path 116" d="M971.537,741.9l-.217,2.587.728-.146-.109-2.806Z" transform="translate(-794.056 -606.134)" fill="#1d2366"/>
    <path id="Path_117" data-name="Path 117" d="M884.247,665.539a18.494,18.494,0,0,0-.433,7.517c.073.606.141.975.141.975s-1.313,2.991-1.422,3.1-3.864,2.4-3.864,2.4l-2.624,1.532s-2.662-1.167-1.386-1.568a1.937,1.937,0,0,0,.688-.469,22.04,22.04,0,0,0,2.883-4.232,7.277,7.277,0,0,1,.511-2.26c.4-.729.256-8.384.256-8.384l.031-12.48V650.05l4.994.036a11.315,11.315,0,0,0,.215,1.643,25.134,25.134,0,0,0,.7,2.768C885.814,657.344,885.449,662.112,884.247,665.539Z" transform="translate(-723.387 -542.063)" fill="#ffb0b1"/>
    <path id="Path_118" data-name="Path 118" d="M883.955,777.041s-1.313,2.991-1.422,3.1-3.864,2.4-3.864,2.4l-2.624,1.532s-2.662-1.167-1.386-1.568a1.937,1.937,0,0,0,.688-.469l.113.8.875-.037,7.486-6.736C883.888,776.673,883.955,777.041,883.955,777.041Z" transform="translate(-723.387 -645.073)" opacity="0.1"/>
    <path id="Path_119" data-name="Path 119" d="M863.1,777l-7.528,6.781-.875.036-.183-1.278a6.045,6.045,0,0,1-4.93,1.859s-2.041,1.349.984,1.422,6.889-.11,6.889-.11,2.7-4.2,4.957-3.652v3.172h.694v-3.2a2.882,2.882,0,0,0,1.231-1.9,2.326,2.326,0,0,0-.805-2.133,1.375,1.375,0,0,1-.435-1Z" transform="translate(-702.624 -645.833)" fill="#1d2366"/>
    <path id="Path_120" data-name="Path 120" d="M993.2,668.83a3.947,3.947,0,0,0,.111,3.235v.011a5.978,5.978,0,0,1,.873,2.131l.029.164-3.425,4.994-1.859.73s-2.989-1.021-2.443-1.313a2.8,2.8,0,0,0,.6-.975c.73-1.579,1.738-4.493,1.738-4.493v-.024c.106-1.2.274-2.4.46-3.6A42.389,42.389,0,0,0,989,662.27s-.219-6.414-.694-7.873a12.042,12.042,0,0,1-.425-2.271c-.1-.913-.12-1.665-.12-1.665s1.968-2.739,5.576.219a3.965,3.965,0,0,1,.754.818c2.492,3.546.486,11.357.486,11.357S994.07,665.7,993.2,668.83Z" transform="translate(-815.02 -541.454)" fill="#ffb0b1"/>
    <path id="Path_121" data-name="Path 121" d="M994.239,776.07l-3.425,4.994-1.859.73s-2.989-1.021-2.443-1.313a2.8,2.8,0,0,0,.6-.975,2.363,2.363,0,0,1,1.921,1.194l1.6-.256s2.114-4.156,2.589-4.409.073-1.9.073-1.9v-.418c.013.015.024.031.038.046v.011a5.98,5.98,0,0,1,.873,2.131Z" transform="translate(-815.045 -643.152)" opacity="0.1"/>
    <path id="Path_122" data-name="Path 122" d="M978.106,781.282a2.232,2.232,0,0,0-2.662-1.057s-.984,2.008-1.968,2.333-.656,1.421,1.568,1.021,5.576-.73,5.576-.73l.146-2.043,2.26-2.879s1.348-1.221-.657-3.626v.418s.4,1.643-.073,1.9-2.582,4.411-2.582,4.411Z" transform="translate(-804.013 -643.626)" fill="#1d2366"/>
    <path id="Path_123" data-name="Path 123" d="M905.139,650.067a11.335,11.335,0,0,0,.215,1.643,22.9,22.9,0,0,0-5.215-.053V650.03Z" transform="translate(-744.498 -542.046)" opacity="0.1"/>
    <path id="Path_124" data-name="Path 124" d="M1000.326,651.943s-2.922.143-6.405.172c-.1-.913-.121-1.665-.121-1.665s1.968-2.739,5.576.219a3.972,3.972,0,0,1,.754.818A4.447,4.447,0,0,0,1000.326,651.943Z" transform="translate(-821.057 -541.445)" opacity="0.1"/>
    <path id="Path_125" data-name="Path 125" d="M916.222,508.433s-12.8.619-16.7-.475-7.766-.146-8.348-.4-.11-4.229.4-5.213,3.316-10.937,3.316-10.937l2.7-14.07,2.843-.783.2-.057,4.954-1.366,3.63-1s7.218,28.179,6.6,30.257a5.321,5.321,0,0,0-.106,2.445A6.106,6.106,0,0,0,916.222,508.433Z" transform="translate(-736.953 -398.263)" fill="#1d2366"/>
    <path id="Path_126" data-name="Path 126" d="M869.978,439s-2.556,2.739-.621,4.265,3.208.146,3.208.146Z" transform="translate(-718.744 -369.548)" fill="#c7daf5"/>
    <path id="Path_127" data-name="Path 127" d="M869.978,439s-2.556,2.739-.621,4.265,3.208.146,3.208.146Z" transform="translate(-718.744 -369.548)" opacity="0.1"/>
    <path id="Path_128" data-name="Path 128" d="M964.629,318.03s-.3.285-.75.7c-.643.6-1.594,1.479-2.438,2.215-1.169,1.017-2.133,1.764-1.788,1.127a4.923,4.923,0,0,0,.108-2.786c-.013-.069-.024-.139-.037-.206a19.133,19.133,0,0,0-.564-2.257,39.041,39.041,0,0,1,2.932-3.4c.389-.365.661-.515.677-.261a8.484,8.484,0,0,0,.592,1.9c.009.026.018.049.029.075.212.548.451,1.11.661,1.6C964.373,317.475,964.629,318.03,964.629,318.03Z" transform="translate(-792.742 -266.585)" fill="#ffb0b1"/>
    <path id="Path_129" data-name="Path 129" d="M963.391,315.144a5.419,5.419,0,0,1-3.63,4.156,19.029,19.029,0,0,0-.6-2.463s3.555-4.592,3.61-3.663A8.694,8.694,0,0,0,963.391,315.144Z" transform="translate(-792.742 -266.595)" opacity="0.1"/>
    <path id="Path_130" data-name="Path 130" d="M929.906,351.1l.46-.648s.3,1.859,1.426,1.039,1.176,6.17,1.176,6.17l-1.2,17.99-8.695-.52.247-8.693.984-4.382,2.434-6.371,1.448-2.105Z" transform="translate(-763.241 -297.166)" opacity="0.1"/>
    <path id="Path_131" data-name="Path 131" d="M932.993,358.228l-1.1,16.267-.115,1.724-4.848-.29-.183-.011L923.1,375.7l.246-8.695.984-4.382,2.434-6.371,1.448-2.105,1.724-2.489.46-.646s.3,1.859,1.426,1.039l.024-.016h0C932.942,351.339,932.993,358.228,932.993,358.228Z" transform="translate(-763.266 -297.624)" fill="#1d2366"/>
    <path id="Path_132" data-name="Path 132" d="M880.067,406.26a1.33,1.33,0,0,1-1.313.765c-.876-.148-.875,3.287-.875,3.287s-.582.548-.984.073-1.461,1.13-1.461,1.13l-6.635.292s2.953,1.349,2.374,5.432c0,0,10.024-.621,10.353-1.568S880.067,406.26,880.067,406.26Z" transform="translate(-718.88 -342.786)" fill="#fff"/>
    <path id="Path_133" data-name="Path 133" d="M880.067,406.26a1.33,1.33,0,0,1-1.313.765c-.876-.148-.875,3.287-.875,3.287s-.582.548-.984.073-1.461,1.13-1.461,1.13l-6.635.292s2.953,1.349,2.374,5.432c0,0,10.024-.621,10.353-1.568S880.067,406.26,880.067,406.26Z" transform="translate(-718.88 -342.786)" opacity="0.03"/>
    <path id="Path_134" data-name="Path 134" d="M777.66,389.76l1.749,1.494,14.4,3.025-1.786-1.822Z" transform="translate(-635.756 -318.593)" fill="#fff"/>
    <path id="Path_135" data-name="Path 135" d="M913.994,349.507a36.833,36.833,0,0,0-1.5,3.867c-.477,1.36-.875,2.556-.875,2.556a68.376,68.376,0,0,1-1.4,7.145c-.475,1.094-.217,5.359-.217,5.359l-1.769,10.534a52.529,52.529,0,0,1-2.04,8.677,15.8,15.8,0,0,1-2.624,4.738c.548-.741,3.533-15.337,3.533-15.337l.986-18.409s.144-1.749.29-3.245,3.1-3.537,3.1-3.537l2.852-4.055C914.622,348.183,914.43,348.852,913.994,349.507Z" transform="translate(-747.302 -295)" fill="#fff"/>
    <path id="Path_136" data-name="Path 136" d="M890.31,468.643s-4.2-.183-6.234-2.626,4.7-.975,4.7-.975l1.751.4Z" transform="translate(-731.055 -390.477)" fill="#ffb0b1"/>
    <path id="Path_137" data-name="Path 137" d="M958.473,408.183a5.321,5.321,0,0,0-.106,2.445,34.8,34.8,0,0,1-9.482-.913,21.3,21.3,0,0,1-3.318,2.078l-1.311-16.25c-.838-2.191-1.167-13.67-1.167-13.67s.075-.6.183-1.5a.175.175,0,0,1,.009-.068,69.763,69.763,0,0,1,1.293-7.871c.438-.876-1.347-3.208-1.347-3.208l.813-6.929.1-.836c1.713-.765,3.026-3.208,3.026-3.208l1.008-1.766h0c1.1-.7,1.152,6.186,1.152,6.186l-1.1,16.267,3.63-1S959.092,406.1,958.473,408.183Z" transform="translate(-779.606 -302.057)" opacity="0.1"/>
    <path id="Path_138" data-name="Path 138" d="M964.155,389.823c-4.994,2.48-14.07.183-14.07.183a21.3,21.3,0,0,1-3.318,2.078l-1.313-16.25c-.836-2.191-1.165-13.67-1.165-13.67s1.055-8.565,1.494-9.44a1.407,1.407,0,0,0-.086-1.044,13.216,13.216,0,0,1-.8-6.115l.351-2.978.1-.834c1.715-.767,3.027-3.21,3.027-3.21l.913-1.6,1.68-2.947.8-1.395.135.122,1.032.935,1.1.913c1.43,1.205,3.9,3.327,5.174,4.625,1.121,1.143,1.475,5.589,1.578,8.936.068,2.2.027,3.931.027,3.931-1.13,1.861,1.826,16.8,1.826,16.8C963.317,371.747,964.155,389.823,964.155,389.823Z" transform="translate(-780.587 -282.575)" fill="#fff"/>
    <path id="Path_139" data-name="Path 139" d="M931.8,363.787s-3.427,6.524-3.029,9,1.53,5.286.984,5.941a2.017,2.017,0,0,1-1.6.8,5.277,5.277,0,0,0-2.009,1.167,19.041,19.041,0,0,0-2.556.621,15.916,15.916,0,0,1-2.989.8s-3.469-.11-3.792.219a4.878,4.878,0,0,0,.036,3.864c.692,1.568,1.461,2.739,2.041,2.952s4.265-1.021,7.254-1.313,6.234-2.66,6.234-2.66,3.573-1.278,4.2-3.427S935.8,367.8,935.8,367.8,934.751,362.292,931.8,363.787Z" transform="translate(-757.816 -307.857)" opacity="0.03"/>
    <path id="Path_140" data-name="Path 140" d="M929.422,360.789s-3.427,6.526-3.026,9,1.53,5.286.982,5.943a2.008,2.008,0,0,1-1.6.8,5.276,5.276,0,0,0-2.009,1.167,19.2,19.2,0,0,0-2.556.619,16.072,16.072,0,0,1-2.989.8s-3.469-.11-3.791.219a4.879,4.879,0,0,0,.036,3.864c.694,1.567,1.461,2.739,2.041,2.953s4.265-1.021,7.254-1.311S930,382.187,930,382.187s3.572-1.278,4.19-3.425-.765-13.963-.765-13.963S932.375,359.3,929.422,360.789Z" transform="translate(-755.878 -305.407)" opacity="0.03"/>
    <path id="Path_141" data-name="Path 141" d="M931.225,362s-3.427,6.526-3.026,9,1.53,5.286.984,5.941a2.009,2.009,0,0,1-1.6.8,5.3,5.3,0,0,0-2.008,1.165,18.783,18.783,0,0,0-2.556.621,15.953,15.953,0,0,1-2.989.8s-3.469-.11-3.792.219a4.879,4.879,0,0,0,.036,3.864c.692,1.567,1.461,2.739,2.041,2.952s4.265-1.021,7.254-1.313,6.234-2.66,6.234-2.66,3.573-1.278,4.2-3.427-.756-13.961-.756-13.961S934.176,360.512,931.225,362Z" transform="translate(-757.35 -306.397)" fill="#fff"/>
    <path id="Path_142" data-name="Path 142" d="M990.694,458.27s-2.739-.548-1.786.365.948,1.713,2.114,1.676S990.694,458.27,990.694,458.27Z" transform="translate(-816.894 -385.166)" opacity="0.1"/>
    <path id="Path_143" data-name="Path 143" d="M1023.492,566.58s-1.238.838,1.13,2.77S1023.492,566.58,1023.492,566.58Z" transform="translate(-845.063 -473.833)" opacity="0.1"/>
    <path id="Path_144" data-name="Path 144" d="M1011.762,604.31c0,.109-.438,4.017,1.2,4.994S1011.762,604.31,1011.762,604.31Z" transform="translate(-835.696 -504.674)" opacity="0.1"/>
    <path id="Path_145" data-name="Path 145" d="M855.488,436.59c-1.322.046-4.178.449-2.7,3.212,1.309,2.445,3.509.811,4.747-.429A4.665,4.665,0,0,0,855.488,436.59Z" transform="translate(-705.455 -367.578)" fill="#ffb0b1"/>
    <path id="Path_146" data-name="Path 146" d="M881.39,451Z" transform="translate(-729.172 -379.357)" fill="#ffb0b1"/>
    <path id="Path_147" data-name="Path 147" d="M880.74,451.457l.055-.057Z" transform="translate(-728.64 -379.684)" fill="#ffb0b1"/>
    <path id="Path_148" data-name="Path 148" d="M958.315,335.164c-1.4.959-2.578,1.767-2.808,1.935-.628.466-1.826,3.2-2.6,4.594-.615,1.123-2.615,1.411-3.369,1.483l.1-.834c1.714-.767,3.027-3.21,3.027-3.21l3.389-5.941,1.167,1.061Z" transform="translate(-784.878 -283.057)" opacity="0.1"/>
    <path id="Path_149" data-name="Path 149" d="M958.315,334.564c-1.4.959-2.578,1.767-2.808,1.937-.628.464-1.826,3.2-2.6,4.592-.615,1.123-2.615,1.411-3.369,1.483l.1-.834c1.714-.767,3.027-3.21,3.027-3.21l3.389-5.941,1.167,1.057S957.658,334.009,958.315,334.564Z" transform="translate(-784.878 -282.567)" fill="#dce7ff"/>
    <path id="Path_150" data-name="Path 150" d="M934.328,293.678a5.416,5.416,0,1,1-4.6-5.353A5.407,5.407,0,0,1,934.328,293.678Z" transform="translate(-763.589 -246.333)" fill="#ffb0b1"/>
    <path id="Path_151" data-name="Path 151" d="M945.539,311.89a4.814,4.814,0,0,1-1.747-1.877,4.943,4.943,0,0,0-1.028-1.725,4.564,4.564,0,0,0-1.68-.648,4.924,4.924,0,0,1-3.591-4.322,25.628,25.628,0,0,0,.131-2.815,3.12,3.12,0,0,0-.61-1.452,5,5,0,0,0-.528-.568c-.256-.241-.524-.475-.758-.73a2.836,2.836,0,0,1-.383-.52,2.505,2.505,0,0,1-.21-.484c-.365-1.117-.033-2.443-.435-3.573l-.022-.062a1.162,1.162,0,0,0-.889-.834c-.429-.031-.8.325-1.205.484a2.689,2.689,0,0,1-2.494-.811,3.42,3.42,0,0,0-2.427-1.108,7.837,7.837,0,0,0-1.629.707,2.282,2.282,0,0,1-.385.111,5.414,5.414,0,0,1,10.439,2.018,5.358,5.358,0,0,1-.119,1.13c.009.026.018.049.029.075.212.548.451,1.11.661,1.6l1.032.935,1.1.913c1.43,1.205,3.9,3.327,5.175,4.625C945.083,304.1,945.433,308.544,945.539,311.89Z" transform="translate(-765.35 -246.333)" opacity="0.1"/>
    <path id="Path_152" data-name="Path 152" d="M920.7,269.611c.261-.531.391-1.127.7-1.631a3.885,3.885,0,0,1,2.08-1.481c2.145-.74,6.679-1.813,8.034,0a3.952,3.952,0,0,0,.856,1.022,6.356,6.356,0,0,0,.929.418,3.552,3.552,0,0,1,1.709,2.191c.294.9.382,1.87.6,2.8a20.587,20.587,0,0,0,1.242,3.445,9.488,9.488,0,0,0,2.266,3.637c1.5,1.278,1.826,3.088,3.214,4.49,1.643,1.665,1.59,4.413.743,6.6a1.811,1.811,0,0,0-.194.891,1.747,1.747,0,0,0,.484.825l.9,1.013a5.051,5.051,0,0,1-5.52-2.545,4.937,4.937,0,0,0-1.03-1.725,4.553,4.553,0,0,0-1.678-.646,4.931,4.931,0,0,1-3.592-4.326,25.548,25.548,0,0,0,.132-2.812,3.1,3.1,0,0,0-.612-1.461c-.5-.655-1.26-1.1-1.669-1.826-.692-1.222-.166-2.808-.665-4.119a1.165,1.165,0,0,0-.889-.834c-.429-.031-.8.325-1.207.484a2.683,2.683,0,0,1-2.492-.811,3.4,3.4,0,0,0-2.428-1.106,7.636,7.636,0,0,0-1.627.707c-.409.157-1.238.3-1.6-.047C918.634,272.063,920.385,270.261,920.7,269.611Z" transform="translate(-760.08 -227.729)" fill="#591d4b"/>
    <path id="Path_153" data-name="Path 153" d="M939.074,298.63a4.94,4.94,0,0,0-1.03-1.724,4.553,4.553,0,0,0-1.68-.648,4.931,4.931,0,0,1-3.591-4.324,26.013,26.013,0,0,0,.133-2.814,3.121,3.121,0,0,0-.612-1.452c-.5-.656-1.262-1.1-1.669-1.826-.692-1.22-.166-2.806-.667-4.119a1.169,1.169,0,0,0-.887-.834c-.427-.033-.8.327-1.207.486a2.686,2.686,0,0,1-2.492-.811,3.421,3.421,0,0,0-2.428-1.108,7.787,7.787,0,0,0-1.627.707c-.409.157-1.24.3-1.6-.046-.752-.73,1-2.529,1.313-3.175a17.523,17.523,0,0,1,.7-1.63c.016-.027.035-.055.053-.082a2.9,2.9,0,0,0-.6.683,17.733,17.733,0,0,0-.7,1.631c-.316.646-2.067,2.45-1.313,3.175.365.347,1.187.2,1.6.047a7.512,7.512,0,0,1,1.627-.707,3.4,3.4,0,0,1,2.428,1.106,2.692,2.692,0,0,0,2.494.811c.409-.159.767-.517,1.205-.484a1.163,1.163,0,0,1,.889.834c.5,1.311-.027,2.9.665,4.119.409.718,1.167,1.167,1.669,1.826a3.1,3.1,0,0,1,.612,1.461,25.518,25.518,0,0,1-.131,2.812,4.923,4.923,0,0,0,3.591,4.326,4.578,4.578,0,0,1,1.678.646,4.83,4.83,0,0,1,1.03,1.725,5.051,5.051,0,0,0,5.52,2.545l-.424-.478A5.106,5.106,0,0,1,939.074,298.63Z" transform="translate(-759.903 -235.68)" opacity="0.1"/>
    <path id="Path_154" data-name="Path 154" d="M948.8,350.025a36.829,36.829,0,0,0-1.5,3.867c-.535-.208-1.021-1.536-1.021-1.536l2.852-4.057C949.424,348.7,949.232,349.368,948.8,350.025Z" transform="translate(-782.213 -295.408)" opacity="0.1"/>
    <path id="Path_155" data-name="Path 155" d="M949.4,349.434a36.856,36.856,0,0,0-1.5,3.867c-.535-.206-1.021-1.536-1.021-1.536l2.852-4.055C950.024,348.11,949.832,348.778,949.4,349.434Z" transform="translate(-782.704 -294.926)" fill="#dce7ff"/>
    <path id="Path_156" data-name="Path 156" d="M862.662,434.267l-1.581-4.987a.466.466,0,0,1,.3-.586h0a.467.467,0,0,1,.584.3l1.581,4.981-.157,1.043Z" transform="translate(-712.552 -361.106)" fill="#be8b87"/>
    <path id="Path_157" data-name="Path 157" d="M861.567,428.875h0a.467.467,0,0,1,.586.3l1.581,4.981-.119.781.115.121.157-1.043-1.59-4.981a.467.467,0,0,0-.584-.3h0a.467.467,0,0,0-.243.183A.635.635,0,0,1,861.567,428.875Z" transform="translate(-712.889 -361.139)" fill="#fff" opacity="0.1"/>
    <path id="Path_158" data-name="Path 158" d="M822.6,399.421l.887-.281-.13.855-.027.188-.259-.27Z" transform="translate(-672.49 -326.261)" fill="#efc8c4"/>
    <path id="Path_159" data-name="Path 159" d="M872.42,461.732a.182.182,0,0,1,.057-.047.08.08,0,0,1,.086,0,.222.222,0,0,1,.031.049.157.157,0,0,0,.113.075l-.027.183Z" transform="translate(-721.839 -388.08)" fill="#727a9c"/>
    <path id="Path_160" data-name="Path 160" d="M861.13,441.7s3.172-.018,2.425,1.331a2.853,2.853,0,0,1-1.914,1.512Z" transform="translate(-712.611 -371.755)" fill="#ffb0b1"/>
    <path id="Path_161" data-name="Path 161" d="M566.313,110.05h-.137a15.617,15.617,0,0,0-13.039,7.137A15.617,15.617,0,0,0,540.1,110.05h-.137a15.52,15.52,0,0,0-15.372,15.511c0,5.078,2.224,12.283,6.56,18.211,8.262,11.3,21.987,21.18,21.987,21.18s13.725-9.882,21.985-21.18c4.338-5.929,6.56-13.134,6.56-18.211A15.52,15.52,0,0,0,566.313,110.05Zm-1.959,34.591a3.077,3.077,0,0,1-2.861-1.976h-3.257a1.03,1.03,0,0,1-.969-.7l-1-3.015L553.1,150.013a1.024,1.024,0,0,1-.982.74h-.064a1.012,1.012,0,0,1-.95-.847l-3.263-19.625-2.385,11.613a1.017,1.017,0,0,1-.988.772H539.88a1.021,1.021,0,1,1,0-2.04h3.785l3.378-15.613a1.024,1.024,0,0,1,2.008.084l3.332,20.019,2.837-9.9a1,1,0,0,1,.955-.73h.02a1.019,1.019,0,0,1,.968.7l1.81,5.443h2.48a3.06,3.06,0,1,1,2.907,4.017Z" transform="translate(-437.519 -100.66)" fill="#01b6a4"/>
  </g>
</svg>
