<svg id="undraw_order_confirmed_re_g0if" xmlns="http://www.w3.org/2000/svg" width="184.494" height="140.368" viewBox="0 0 184.494 140.368">
  <path id="Path_276" data-name="Path 276" d="M309.363,168.609h-.673V150.171A10.671,10.671,0,0,0,298.018,139.5H258.955a10.671,10.671,0,0,0-10.671,10.671V251.323a10.671,10.671,0,0,0,10.671,10.671h39.063a10.671,10.671,0,0,0,10.671-10.671V181.733h.673Z" transform="translate(-235.537 -139.5)" fill="#3f3d56"/>
  <path id="Path_277" data-name="Path 277" d="M308.531,151.783h-5.1A3.786,3.786,0,0,1,299.927,157H277.548a3.786,3.786,0,0,1-3.505-5.216H269.28a7.969,7.969,0,0,0-7.969,7.969v101a7.969,7.969,0,0,0,7.969,7.969h39.251a7.969,7.969,0,0,0,7.969-7.969h0v-101a7.969,7.969,0,0,0-7.969-7.969Z" transform="translate(-245.62 -149.006)" fill="#fff"/>
  <path id="Path_278" data-name="Path 278" d="M278.238,679.952h-86.12a.226.226,0,1,1,0-.452h86.12a.226.226,0,0,1,0,.452Z" transform="translate(-191.892 -557.441)" fill="#cbcbcb"/>
  <circle id="Ellipse_44" data-name="Ellipse 44" cx="19.088" cy="19.088" r="19.088" transform="translate(24.198 39.96)" fill="#01b6a4"/>
  <path id="Path_395" data-name="Path 395" d="M352.84,383.239a1.98,1.98,0,0,1-1.191-.4l-.021-.016-4.486-3.432a1.994,1.994,0,1,1,2.426-3.164l2.906,2.228,6.866-8.958a1.993,1.993,0,0,1,2.794-.369h0l-.043.059.044-.059a2,2,0,0,1,.369,2.794l-8.076,10.531a1.994,1.994,0,0,1-1.586.777Z" transform="translate(-311.445 -316.909)" fill="#fff"/>
  <path id="Path_279" data-name="Path 279" d="M882.79,608.575a5.932,5.932,0,0,1,.815-1.039c.128-.132.262-.257.4-.378a6.361,6.361,0,0,1,10.488,3.618c.932-3.448-1.494-6.843-3.934-9.452s-5.231-5.468-5.217-9.041a6.883,6.883,0,0,1,2.448-5.077c.045-.04.091-.08.137-.118a9.283,9.283,0,0,1,6.394-2.228c4.34.232,8.129,3.149,10.76,6.609,4.236,5.567,6.092,13.381,3.126,19.717-2.608,5.573-8.171,8.883-13.848,11.543q-1.189.557-2.373,1.081l-.016.006c-.038.017-.076.033-.112.051l-.488.215.075.049.233.151-.242-.146-.074-.044c-2.788-1.673-5.615-3.443-7.542-6.055C881.825,615.327,881.021,611.442,882.79,608.575Z" transform="translate(-725.866 -484.188)" fill="#f1f1f1"/>
  <path id="Path_280" data-name="Path 280" d="M907.531,609.908a15.778,15.778,0,0,1,1.215,4.414,13.7,13.7,0,0,1-.165,4.071,17.558,17.558,0,0,1-3.521,7.532,25.265,25.265,0,0,1-4.562,4.435q-1.189.557-2.373,1.081l-.016.006c-.038.017-.076.033-.112.051l-.487.215.075.049.233.151-.242-.146-.073-.044a13.845,13.845,0,0,0-7.759-16.557c.128-.132.262-.257.4-.378a14.6,14.6,0,0,1,2.239,1.278,14.312,14.312,0,0,1,5.416,7.174,14.632,14.632,0,0,1,.318,8.18c.14-.092.281-.185.417-.279a25.659,25.659,0,0,0,6.795-6.435,16.334,16.334,0,0,0,2.9-7.365A14.761,14.761,0,0,0,906.55,609a34.187,34.187,0,0,0-5.356-7.611,38.851,38.851,0,0,0-7.182-6.176.279.279,0,0,1-.083-.376.238.238,0,0,1,.137-.118.207.207,0,0,1,.176.036c.326.217.648.436.967.662a39.291,39.291,0,0,1,7.18,6.559A31.629,31.629,0,0,1,907.531,609.908Z" transform="translate(-732.004 -491.819)" fill="#fff"/>
  <circle id="Ellipse_44-2" data-name="Ellipse 44" cx="4.054" cy="4.054" r="4.054" transform="translate(114.624 0.756)" fill="#f1f1f1"/>
  <circle id="Ellipse_44-3" data-name="Ellipse 44" cx="2.471" cy="2.471" r="2.471" transform="translate(166.613 58.169)" fill="#f1f1f1"/>
  <circle id="Ellipse_44-4" data-name="Ellipse 44" cx="2.471" cy="2.471" r="2.471" transform="translate(94.281 64.95)" fill="#f1f1f1"/>
  <path id="Path_281" data-name="Path 281" d="M625.334,758.952h86.12a.226.226,0,0,0,0-.452h-86.12a.226.226,0,0,0,0,.452Z" transform="translate(-527.186 -618.584)" fill="#cbcbcb"/>
  <path id="Path_282" data-name="Path 282" d="M919.357,223.211a3.312,3.312,0,0,0-6.36-1.679l-6.988,8.012,2.05,5.727,7.028-9.361a3.294,3.294,0,0,0,4.27-2.7Z" transform="translate(-744.593 -201.368)" fill="#ffb7b7"/>
  <path id="Path_283" data-name="Path 283" d="M614.1,132.744l23.2-24.757-3.129-4.975-29.1,24.607Z" transform="translate(-468.307 -79.728)" fill="#3f3d56"/>
  <circle id="Ellipse_31" data-name="Ellipse 31" cx="8.137" cy="8.137" r="8.137" transform="translate(132.481 21.699)" fill="#2f2e41"/>
  <path id="Path_284" data-name="Path 284" d="M816.894,235.007a17.063,17.063,0,0,1,6.208-4.014,8.734,8.734,0,0,1,4.7-.584,4.482,4.482,0,0,1,3.49,2.94,5.549,5.549,0,0,1-.567,3.8c-.555,1.185-1.3,2.284-1.746,3.513a8.017,8.017,0,0,0,8.067,10.751,39.9,39.9,0,0,0-4.469,1.317,4.683,4.683,0,0,1-4.4-.72c-1.185-1.142-1.208-3-1.151-4.643q.128-3.667.255-7.334a9.314,9.314,0,0,0-.369-3.7,3.175,3.175,0,0,0-2.765-2.172,4.537,4.537,0,0,0-2.54,1.146,5.191,5.191,0,0,1-2.5,1.251c-.942.084-2.017-.613-1.946-1.556Z" transform="translate(-675.621 -209.767)" fill="#2f2e41"/>
  <path id="Path_285" data-name="Path 285" d="M662.892,465.076a3.312,3.312,0,0,1-2.5-6.086l7.03-7.975,5.946,1.285-8.363,8.191a3.294,3.294,0,0,1-2.118,4.586Z" transform="translate(-553.18 -380.601)" fill="#ffb7b7"/>
  <path id="Path_286" data-name="Path 286" d="M509.417,204.533,491.9,226.526l-5.341-2.452,20.594-32.062Z" transform="translate(-376.576 -148.61)" fill="#3f3d56"/>
  <path id="Path_287" data-name="Path 287" d="M511.55,540.987l-4.176-.066.5,14.233h3.673Z" transform="translate(-392.689 -418.654)" fill="#ffb7b7"/>
  <path id="Path_288" data-name="Path 288" d="M681.33,738.081H674.1a4.61,4.61,0,0,0-4.61,4.609v.15h11.843Z" transform="translate(-561.533 -602.78)" fill="#2f2e41"/>
  <path id="Path_289" data-name="Path 289" d="M632.546,524.511l-4.562,2.929,9.125,10.977,3.091-1.984Z" transform="translate(-486.037 -405.953)" fill="#ffb7b7"/>
  <path id="Path_290" data-name="Path 290" d="M846.439,710.049l-6.087,3.908h0a4.61,4.61,0,0,0-1.388,6.37l.081.126,9.966-6.4Z" transform="translate(-692.136 -581.085)" fill="#2f2e41"/>
  <path id="Path_291" data-name="Path 291" d="M724.944,354.861s-10.135-33.663-13.393-34.118-8.505,8.638-8.505,8.638c-6.8,8.682-13.821,36.8-13.821,36.8s11.7.732,20.247,5.281,18.641-.23,18.641-.23Z" transform="translate(-576.81 -279.763)" fill="#3f3d56"/>
  <path id="Path_292" data-name="Path 292" d="M724.944,354.862s-10.135-33.663-13.393-34.118-7.172,8.73-7.172,8.73c-3.391,14.014-15.154,36.711-15.154,36.711s11.7.732,20.247,5.281,18.641-.23,18.641-.23Z" transform="translate(-576.81 -279.764)" opacity="0.1" style="isolation: isolate"/>
  <path id="Path_293" data-name="Path 293" d="M527.864,279.647v16.915l1.991,24.5L539.8,339.6l-4.747,3.391L521.491,325.36l-5.364-17.506L507.7,346.607l-6.329-.452,4.4-53.731L514.11,277.3Z" transform="translate(-388.046 -214.62)" fill="#2f2e41"/>
  <path id="Path_294" data-name="Path 294" d="M752.093,328.485c-3.165,3.165-.226,6.555-.226,6.555l-3.617,8.137,14.24,3.843,4.976-22.237-3.391-3.617c-6.781-.226-6.785-.367-6.785-.367C756.1,321.962,752.093,328.485,752.093,328.485Z" transform="translate(-622.493 -279.819)" fill="#01b6a4"/>
  <path id="Path_295" data-name="Path 295" d="M790.98,324.163a6.077,6.077,0,0,0-8.539,1.337c-3.58,4.985-6.89,13.033-2.329,23.072,7.323,16.118,13.7,24.37,16.287,24.369a1.032,1.032,0,0,0,.333-.052c1.595-.541,3.9-3.24,4.318-5.618a2.849,2.849,0,0,0-.9-2.851c-2.924-2.339-8.173-9.62-9.81-19.2a21.246,21.246,0,0,1,2.481-13.234,6.076,6.076,0,0,0-1.758-7.76h0Z" transform="translate(-645.433 -281.503)" fill="#3f3d56"/>
  <circle id="Ellipse_32" data-name="Ellipse 32" cx="5.99" cy="5.99" r="5.99" transform="translate(130.034 29.536) rotate(-28.663)" fill="#ffb7b7"/>
  <path id="Path_296" data-name="Path 296" d="M765.872,256.16h8.649l.089-1.242.443,1.242h1.332l.176-2.461.879,2.461h2.577v-.122a6.47,6.47,0,0,0-6.463-6.463h-1.219a6.47,6.47,0,0,0-6.463,6.463Z" transform="translate(-636.132 -224.694)" fill="#2f2e41"/>
  <path id="Path_297" data-name="Path 297" d="M811.436,263.661l3.691-1.2V253.5h-6.972l.173.172C810.73,256.071,813.4,264.58,811.436,263.661Z" transform="translate(-668.858 -227.732)" fill="#2f2e41"/>
</svg>
