<svg id="undraw_filing_system_re_56h6" xmlns="http://www.w3.org/2000/svg" width="223.382" height="137.502" viewBox="0 0 223.382 137.502">
  <path id="Path_133" data-name="Path 133" d="M170.589,600.264a37.166,37.166,0,0,0,1.736,10.274c.023.077.05.153.075.23h6.479c-.007-.069-.014-.146-.021-.23-.432-4.967,2.036-34.834,5.014-40C183.612,570.954,170.087,584.483,170.589,600.264Z" transform="translate(-159.647 -473.501)" fill="#f1f1f1"/>
  <path id="Path_134" data-name="Path 134" d="M156.163,669.505c.054.077.111.154.168.23h4.861l-.129-.23c-.8-1.449-3.18-5.782-5.386-10.274-2.37-4.827-4.546-9.837-4.363-11.651C151.258,647.99,149.617,660.457,156.163,669.505Z" transform="translate(-144.735 -532.469)" fill="#f1f1f1"/>
  <path id="Path_1" data-name="Path 1" d="M774.453,262.251a3.384,3.384,0,0,0,4.937,1.6l9.381,7.525.581-6.222-9-6.192a3.4,3.4,0,0,0-5.9,3.292Z" transform="translate(-621.631 -233.959)" fill="#9f616a"/>
  <path id="Path_2" data-name="Path 2" d="M688.831,122.377l-3.5-2.474-3.971,4.588,4.62,2.738Z" transform="translate(-521.481 -91.768)" fill="#01b6a4"/>
  <path id="Path_3" data-name="Path 3" d="M814.25,267.764l11.8,4.54,11.359-7.438a5.777,5.777,0,0,1,7.461,8.7l-.1.113-17.47,9.367-19.083-8.718Z" transform="translate(-647.668 -238.834)" fill="#3f3d56"/>
  <path id="Path_4" data-name="Path 4" d="M294.714,299.053H171.76L176.218,212h19.241L213.2,224.436h85.97Z" transform="translate(-131.457 -162.255)" fill="#e5e5e5"/>
  <path id="Path_5" data-name="Path 5" d="M457.642,270l-71.066-29.267a1.015,1.015,0,0,1-.551-1.324l32.2-78.191a1.015,1.015,0,0,1,1.324-.551l71.066,29.267a1.015,1.015,0,0,1,.551,1.324l-32.2,78.191A1.015,1.015,0,0,1,457.642,270Z" transform="translate(-324.484 -159.745)" fill="#fff"/>
  <path id="Path_6" data-name="Path 6" d="M457.642,270l-71.066-29.267a1.015,1.015,0,0,1-.551-1.324l32.2-78.191a1.015,1.015,0,0,1,1.324-.551l71.066,29.267a1.015,1.015,0,0,1,.551,1.324l-32.2,78.191A1.015,1.015,0,0,1,457.642,270ZM419.4,161.038a.609.609,0,0,0-.794.331L386.4,239.56a.609.609,0,0,0,.331.794L457.8,269.621a.609.609,0,0,0,.794-.331l32.2-78.191a.609.609,0,0,0-.331-.794Z" transform="translate(-324.484 -159.745)" fill="#3f3d56"/>
  <path id="Path_7" data-name="Path 7" d="M554.492,238.334l-17.626-7.259a1.015,1.015,0,0,1-.551-1.324l7.259-17.626a1.015,1.015,0,0,1,1.324-.551l17.626,7.259a1.015,1.015,0,0,1,.551,1.324l-7.259,17.626A1.015,1.015,0,0,1,554.492,238.334Zm-9.749-26.385a.609.609,0,0,0-.794.331l-7.259,17.626a.609.609,0,0,0,.331.794l17.626,7.259a.609.609,0,0,0,.794-.331L562.7,220a.609.609,0,0,0-.331-.794Z" transform="translate(-439.509 -198.71)" fill="#f2f2f2"/>
  <path id="Path_8" data-name="Path 8" d="M529.336,239.275l-17.626-7.259a.914.914,0,0,1-.5-1.191l7.259-17.626a.914.914,0,0,1,1.191-.5l17.626,7.259a.914.914,0,0,1,.5,1.191l-7.259,17.626a.914.914,0,0,1-1.191.5Z" transform="translate(-420.304 -199.58)" fill="#01b6a4"/>
  <path id="Path_9" data-name="Path 9" d="M551.7,348.968l-55.127-22.7a.913.913,0,0,1,.695-1.688l55.128,22.7a.913.913,0,0,1-.7,1.688Z" transform="translate(-408.717 -285.204)" fill="#ccc"/>
  <path id="Path_10" data-name="Path 10" d="M528.184,368.258l-41.814-17.22a.913.913,0,0,1,.7-1.688l41.814,17.22a.913.913,0,1,1-.7,1.688Z" transform="translate(-400.909 -304.164)" fill="#ccc"/>
  <path id="Path_11" data-name="Path 11" d="M688.72,298.848l-24.376-10.039a.913.913,0,0,1,.7-1.688l24.376,10.039a.913.913,0,0,1-.7,1.688Z" transform="translate(-537.123 -256.536)" fill="#ccc"/>
  <path id="Path_12" data-name="Path 12" d="M672.435,321.115l-18.293-7.533a.913.913,0,1,1,.7-1.687l18.293,7.533a.913.913,0,1,1-.7,1.688Z" transform="translate(-529.314 -275.496)" fill="#ccc"/>
  <path id="Path_13" data-name="Path 13" d="M531.295,398.514l-55.127-22.7a.913.913,0,1,1,.695-1.688l55.127,22.7a.913.913,0,0,1-.7,1.688Z" transform="translate(-393.1 -323.123)" fill="#ccc"/>
  <path id="Path_14" data-name="Path 14" d="M507.779,417.8l-41.814-17.22a.913.913,0,0,1,.695-1.688l41.814,17.22a.913.913,0,1,1-.695,1.688Z" transform="translate(-385.292 -342.083)" fill="#ccc"/>
  <path id="Path_15" data-name="Path 15" d="M510.891,448.059l-55.127-22.7a.913.913,0,1,1,.695-1.688l55.127,22.7a.913.913,0,1,1-.695,1.688Z" transform="translate(-377.484 -361.043)" fill="#ccc"/>
  <path id="Path_16" data-name="Path 16" d="M500.688,472.831l-55.127-22.7a.913.913,0,0,1,.7-1.688l55.127,22.7a.913.913,0,0,1-.695,1.688Z" transform="translate(-369.676 -380.003)" fill="#ccc"/>
  <path id="Path_17" data-name="Path 17" d="M566.53,534.121a19.882,19.882,0,0,0,3.307-.1,7.148,7.148,0,0,0,2.885-.794,2.742,2.742,0,0,0,1.366-2.073,1.929,1.929,0,0,0-1.167-1.956,2.3,2.3,0,0,0-2.335.327,3.041,3.041,0,0,0-1.044,2.429,5.6,5.6,0,0,0,3.182,4.514c1.859.88,4.4.132,4.873-2.035.1-.451-.515-.607-.771-.318a2.046,2.046,0,0,0,2.856,2.921l-.691-.285a4.925,4.925,0,0,0,3.388,3.578,4.572,4.572,0,0,0,1.26.192,5.38,5.38,0,0,1,1.549.424l3.577,1.165c.526.171.86-.627.33-.8l-3.24-1.055c-.54-.176-1.078-.357-1.62-.528a9.594,9.594,0,0,0-1.215-.128,4.057,4.057,0,0,1-3.172-2.967.438.438,0,0,0-.691-.285,1.184,1.184,0,1,1-1.648-1.7l-.771-.318a2.49,2.49,0,0,1-3.241,1.518,4.91,4.91,0,0,1-2.966-3.145,2.537,2.537,0,0,1,.185-2.018,1.512,1.512,0,0,1,1.584-.776,1.085,1.085,0,0,1,.927,1.19,1.94,1.94,0,0,1-1.08,1.47,7.014,7.014,0,0,1-2.559.613,18.482,18.482,0,0,1-2.95.084c-.552-.028-.663.831-.105.859Z" transform="translate(-462.412 -441.725)" fill="#01b6a4"/>
  <path id="Path_18" data-name="Path 18" d="M294.714,249.436v68.751H171.76V237H191l17.741,12.436Z" transform="translate(-131.457 -181.389)" fill="#fff"/>
  <rect id="Rectangle_1" data-name="Rectangle 1" width="50.214" height="3.989" transform="translate(47.811 123.892)" fill="#01b6a4"/>
  <rect id="Rectangle_2" data-name="Rectangle 2" width="25.107" height="3.989" transform="translate(47.811 116.149)" fill="#01b6a4"/>
  <path id="Path_19" data-name="Path 19" d="M418.183,474.656H294.76V393h19.55l17.742,12.436h86.131Zm-122.954-.469H417.714V405.905H331.9l-17.742-12.436H295.229Z" transform="translate(-254.692 -337.624)" fill="#3f3d56"/>
  <path id="Path_20" data-name="Path 20" d="M870.41,496.293l-4.16,1.487-7.715-15.34,6.141-2.194Z" transform="translate(-657.084 -367.559)" fill="#9f616a"/>
  <path id="Path_21" data-name="Path 21" d="M985.386,708.416l-.061-.17a5.551,5.551,0,0,1,3.356-7.088l8.193-2.928,1.927,5.391Z" transform="translate(-782.973 -571.233)" fill="#2f2e41"/>
  <path id="Path_22" data-name="Path 22" d="M772.582,510.587h-4.418l-2.1-17.041h6.521Z" transform="translate(-586.31 -377.738)" fill="#9f616a"/>
  <path id="Path_23" data-name="Path 23" d="M876.183,722.749H861.937v-.18a5.545,5.545,0,0,1,5.545-5.545h8.7Z" transform="translate(-688.784 -585.617)" fill="#2f2e41"/>
  <path id="Path_24" data-name="Path 24" d="M929.022,246.8l-1.921-3.8s-7.158,1.793-7.809,5.942Z" transform="translate(-732.681 -222.825)" fill="#01b6a4"/>
  <path id="Path_25" data-name="Path 25" d="M780.915,284.848l-5.225,29.159,13.874,24.537-8.289,3.243L767.221,318l-1.8-6.487-1.081,33.875-7.475-.227-3.427-31.631,5.5-29.405Z" transform="translate(-576.646 -217.458)" fill="#2f2e41"/>
  <path id="Path_26" data-name="Path 26" d="M910.014,282.032l-.181-17.1a19.533,19.533,0,0,0-5.431-13.082,3.122,3.122,0,0,0-1.658-2.038,4.94,4.94,0,0,0-3.617.183l-5.833,2.187-.027.08c-.062.183-5.947,19.5-7.425,24.343-.21.7-.331,1.093-.331,1.093s.023,1.121.064,2.864c.13,5.993.439,19.343.563,19.9,0,0,10.774,1.633,15.04,1.633a48.073,48.073,0,0,0,12.659-1.494l.176-.037Z" transform="translate(-706.826 -227.816)" fill="#3f3d56"/>
  <circle id="Ellipse_1" data-name="Ellipse 1" cx="7.886" cy="7.886" r="7.886" transform="translate(177.751 7.962) rotate(-28.663)" fill="#9f616a"/>
  <path id="Path_27" data-name="Path 27" d="M896.152,366.738l-10.577,2.15c-.041-1.743-.064-2.864-.064-2.864s.121-.4.331-1.093Z" transform="translate(-706.826 -316.141)" opacity="0.2"/>
  <path id="Path_28" data-name="Path 28" d="M793.44,343.456a3.384,3.384,0,0,0,5.119-.852l11.791,2.369L808,339.18l-10.837-1.361a3.4,3.4,0,0,0-3.727,5.637Z" transform="translate(-635.438 -295.113)" fill="#9f616a"/>
  <path id="Path_29" data-name="Path 29" d="M714.414,184.407l-4.247-.587-1.417,5.9,5.361.307Z" transform="translate(-542.446 -140.688)" fill="#01b6a4"/>
  <path id="Path_30" data-name="Path 30" d="M843.055,285.753l12.566-1.394,6.667-11.828a5.777,5.777,0,0,1,10.624,4.291l-.038.147L861.666,293.32l-20.954,1.033Z" transform="translate(-672.539 -243.171)" fill="#3f3d56"/>
  <path id="Path_31" data-name="Path 31" d="M905.4,174.946l-6.545.235c-.4.014-1.482-4.292-1.624-5.185a2.438,2.438,0,0,0-2.543-1.972c-.49.046-1.725-.869-3-1.953a4.808,4.808,0,0,1,.364-7.662q.109-.071.214-.13A11.647,11.647,0,0,1,897.831,157a10.4,10.4,0,0,1,5.069,1.022c2.752,1.479,4.217,4.71,4.345,7.831a22.78,22.78,0,0,1-2.008,9.084" transform="translate(-710.235 -157)" fill="#2f2e41"/>
  <path id="Path_32" data-name="Path 32" d="M347.147,741.469H124.235a.235.235,0,0,1,0-.469H347.147a.235.235,0,1,1,0,.469Z" transform="translate(-124 -603.968)" fill="#cbcbcb"/>
</svg>
