<svg id="undraw_progress_indicator_re_4o4n" xmlns="http://www.w3.org/2000/svg" width="253.157" height="142.92" viewBox="0 0 253.157 142.92">
  <path id="Path_162" data-name="Path 162" d="M235.766,326.3a19.046,19.046,0,0,1,0-38.093H409.117a19.046,19.046,0,1,1,0,38.093Z" transform="translate(-195.864 -261.407)" fill="#e6e6e6"/>
  <path id="Path_163" data-name="Path 163" d="M242.282,297.207a16.562,16.562,0,1,0,0,33.124H415.633a16.562,16.562,0,1,0,0-33.124Z" transform="translate(-202.38 -267.923)" fill="#fff"/>
  <rect id="Rectangle_30" data-name="Rectangle 30" width="0.552" height="33.124" transform="translate(57.477 29.284)" fill="#e6e6e6"/>
  <rect id="Rectangle_31" data-name="Rectangle 31" width="0.552" height="33.124" transform="translate(91.935 29.284)" fill="#e6e6e6"/>
  <rect id="Rectangle_32" data-name="Rectangle 32" width="0.552" height="33.124" transform="translate(126.44 29.284)" fill="#e6e6e6"/>
  <rect id="Rectangle_33" data-name="Rectangle 33" width="0.552" height="33.124" transform="translate(160.668 29.284)" fill="#e6e6e6"/>
  <rect id="Rectangle_34" data-name="Rectangle 34" width="0.552" height="33.124" transform="translate(195.173 29.284)" fill="#e6e6e6"/>
  <path id="Path_164" data-name="Path 164" d="M381.8,339.207a.8.8,0,1,0,0,1.6h16.214a.8.8,0,1,0,0-1.6Z" transform="translate(-314.798 -298.33)" fill="#e6e6e6"/>
  <path id="Path_165" data-name="Path 165" d="M381.8,354.207a.8.8,0,0,0,0,1.6h16.214a.8.8,0,1,0,0-1.6Z" transform="translate(-314.798 -309.189)" fill="#e6e6e6"/>
  <path id="Path_166" data-name="Path 166" d="M381.8,369.207a.8.8,0,1,0,0,1.6h16.214a.8.8,0,1,0,0-1.6Z" transform="translate(-314.798 -320.048)" fill="#e6e6e6"/>
  <path id="Path_167" data-name="Path 167" d="M505.8,339.207a.8.8,0,0,0,0,1.6h16.214a.8.8,0,0,0,0-1.6Z" transform="translate(-404.57 -298.33)" fill="#01b6a4"/>
  <path id="Path_168" data-name="Path 168" d="M505.8,354.207a.8.8,0,0,0,0,1.6h16.214a.8.8,0,0,0,0-1.6Z" transform="translate(-404.57 -309.189)" fill="#01b6a4"/>
  <path id="Path_169" data-name="Path 169" d="M505.8,369.207a.8.8,0,1,0,0,1.6h16.214a.8.8,0,0,0,0-1.6Z" transform="translate(-404.57 -320.048)" fill="#01b6a4"/>
  <path id="Path_170" data-name="Path 170" d="M630.8,339.207a.8.8,0,1,0,0,1.6h16.214a.8.8,0,1,0,0-1.6Z" transform="translate(-495.065 -298.33)" fill="#e6e6e6"/>
  <path id="Path_171" data-name="Path 171" d="M630.8,354.207a.8.8,0,0,0,0,1.6h16.214a.8.8,0,0,0,0-1.6Z" transform="translate(-495.065 -309.189)" fill="#e6e6e6"/>
  <path id="Path_172" data-name="Path 172" d="M630.8,369.207a.8.8,0,1,0,0,1.6h16.214a.8.8,0,1,0,0-1.6Z" transform="translate(-495.065 -320.048)" fill="#e6e6e6"/>
  <path id="Path_173" data-name="Path 173" d="M755.3,339.207a.8.8,0,1,0,0,1.6h16.214a.8.8,0,0,0,0-1.6Z" transform="translate(-585.198 -298.33)" fill="#e6e6e6"/>
  <path id="Path_174" data-name="Path 174" d="M755.3,354.207a.8.8,0,1,0,0,1.6h16.214a.8.8,0,0,0,0-1.6Z" transform="translate(-585.198 -309.189)" fill="#e6e6e6"/>
  <path id="Path_175" data-name="Path 175" d="M755.3,369.207a.8.8,0,1,0,0,1.6h16.214a.8.8,0,0,0,0-1.6Z" transform="translate(-585.198 -320.048)" fill="#e6e6e6"/>
  <path id="Path_176" data-name="Path 176" d="M876.8,339.207a.8.8,0,1,0,0,1.6h16.214a.8.8,0,1,0,0-1.6Z" transform="translate(-673.16 -298.33)" fill="#e6e6e6"/>
  <path id="Path_177" data-name="Path 177" d="M876.8,354.207a.8.8,0,0,0,0,1.6h16.214a.8.8,0,0,0,0-1.6Z" transform="translate(-673.16 -309.189)" fill="#e6e6e6"/>
  <path id="Path_178" data-name="Path 178" d="M876.8,369.207a.8.8,0,1,0,0,1.6h16.214a.8.8,0,1,0,0-1.6Z" transform="translate(-673.16 -320.048)" fill="#e6e6e6"/>
  <path id="Path_179" data-name="Path 179" d="M256.8,339.207a.8.8,0,1,0,0,1.6h16.214a.8.8,0,0,0,0-1.6Z" transform="translate(-224.303 -298.33)" fill="#e6e6e6"/>
  <path id="Path_180" data-name="Path 180" d="M256.8,354.207a.8.8,0,0,0,0,1.6h16.214a.8.8,0,0,0,0-1.6Z" transform="translate(-224.303 -309.189)" fill="#e6e6e6"/>
  <path id="Path_181" data-name="Path 181" d="M256.8,369.207a.8.8,0,1,0,0,1.6h16.214a.8.8,0,0,0,0-1.6Z" transform="translate(-224.303 -320.048)" fill="#e6e6e6"/>
  <circle id="Ellipse_11" data-name="Ellipse 11" cx="13.079" cy="13.079" r="13.079" transform="translate(96.279 0)" fill="#01b6a4"/>
  <path id="Path_182" data-name="Path 182" d="M374.721,87.253l-4.09-7.083-4.089-7.083H382.9l-4.089,7.083Z" transform="translate(-265.363 -52.912)" fill="#01b6a4"/>
  <ellipse id="Ellipse_12" data-name="Ellipse 12" cx="4.693" cy="4.693" rx="4.693" ry="4.693" transform="translate(104.771 8.305)" fill="#fff"/>
  <path id="Path_183" data-name="Path 183" d="M1021.293,351.551a.419.419,0,0,1-.3-.123l-2.265-2.265a.419.419,0,0,1,.593-.593l1.919,1.919,3.4-4.639a.419.419,0,0,1,.677.5l-3.691,5.033a.42.42,0,0,1-.306.17Z" transform="translate(-776.403 -303.015)" fill="#01b6a4"/>
  <path id="Path_184" data-name="Path 184" d="M160.468,352.8a.419.419,0,0,1-.3-.716l4.47-4.47a.419.419,0,0,1,.593.593l-4.47,4.47A.418.418,0,0,1,160.468,352.8Z" transform="translate(-154.836 -304.324)" fill="#01b6a4"/>
  <path id="Path_185" data-name="Path 185" d="M164.938,352.8a.418.418,0,0,1-.3-.123l-4.47-4.47a.419.419,0,1,1,.593-.593l4.47,4.47a.419.419,0,0,1-.3.716Z" transform="translate(-154.836 -304.324)" fill="#01b6a4"/>
  <path id="Path_186" data-name="Path 186" d="M716.756,446.357a2.965,2.965,0,0,1-.88-4.461l-3.834-26.735,6.446.177,1.742,26.224a2.981,2.981,0,0,1-3.474,4.795Z" transform="translate(-554.459 -353.318)" fill="#a0616a"/>
  <path id="Path_187" data-name="Path 187" d="M707.327,399.551a1.328,1.328,0,0,1-.478-1l-.108-6.672a3.693,3.693,0,1,1,7.283-1.224l2.046,6.375a1.33,1.33,0,0,1-1.05,1.718l-6.626,1.093A1.328,1.328,0,0,1,707.327,399.551Z" transform="translate(-550.584 -333.346)" fill="#01b6a4"/>
  <path id="Path_188" data-name="Path 188" d="M510.256,470.605h-3.384l-1.61-13.053h4.995Z" transform="translate(-365.791 -331.251)" fill="#a0616a"/>
  <path id="Path_189" data-name="Path 189" d="M639.027,696.343H628.115V696.2a4.247,4.247,0,0,1,4.247-4.247h6.665Z" transform="translate(-493.699 -553.708)" fill="#2f2e41"/>
  <path id="Path_190" data-name="Path 190" d="M579.256,470.605h-3.384l-1.61-13.053h4.995Z" transform="translate(-415.745 -331.251)" fill="#a0616a"/>
  <path id="Path_191" data-name="Path 191" d="M708.027,696.343H697.115V696.2a4.247,4.247,0,0,1,4.247-4.247h6.665Z" transform="translate(-543.653 -553.708)" fill="#2f2e41"/>
  <path id="Path_192" data-name="Path 192" d="M663.4,556.463l-5.919-31.192a.4.4,0,0,0-.4-.334h0a.4.4,0,0,0-.406.331l-6.153,31.13a1.243,1.243,0,0,1-1.316.989l-4.81-.385a1.242,1.242,0,0,1-1.137-1.356l4.047-43.73,20.68.539.128,0,2.034,43.705a1.242,1.242,0,0,1-1.241,1.3h-4.283A1.245,1.245,0,0,1,663.4,556.463Z" transform="translate(-504.651 -423.365)" fill="#2f2e41"/>
  <circle id="Ellipse_13" data-name="Ellipse 13" cx="6.78" cy="6.78" r="6.78" transform="translate(145.339 36.555)" fill="#a0616a"/>
  <path id="Path_193" data-name="Path 193" d="M653.591,419.2a1.24,1.24,0,0,1-.667-1.28c.877-6.263.318-17.337-.3-25.524a10.982,10.982,0,0,1,8.772-11.685l.253-.047h0a10.93,10.93,0,0,1,9.375,2.715,11.047,11.047,0,0,1,3.576,9.193c-.8,9.126.624,22.789.919,25.435a1.256,1.256,0,0,1-.406,1.063,13.376,13.376,0,0,1-9.3,3.361A29.07,29.07,0,0,1,653.591,419.2Z" transform="translate(-511.416 -328.212)" fill="#01b6a4"/>
  <path id="Path_194" data-name="Path 194" d="M627.09,447.076a2.965,2.965,0,0,0,1.355-4.341l6.69-26.167-6.428-.518-4.555,25.884a2.981,2.981,0,0,0,2.938,5.141Z" transform="translate(-489.956 -353.962)" fill="#a0616a"/>
  <path id="Path_195" data-name="Path 195" d="M644.952,401.989l-6.47-1.8a1.33,1.33,0,0,1-.859-1.821l2.721-6.117a3.693,3.693,0,0,1,7.109,2l-.826,6.622a1.33,1.33,0,0,1-1.676,1.116Z" transform="translate(-500.5 -334.781)" fill="#01b6a4"/>
  <path id="Path_196" data-name="Path 196" d="M671.694,331.495a4.857,4.857,0,0,0,1.876-.339c.263-.1.535-.184.8-.286a6.468,6.468,0,0,0,3.895-5.841,8.412,8.412,0,0,0-3.138-6.476,12.144,12.144,0,0,0-6.854-2.59c-2.666-.2-5.667.473-7.157,2.693a2.338,2.338,0,0,0-.439,2.021,1.293,1.293,0,0,0,.364.56c.665.592,1.328.147,2.006.108a2.218,2.218,0,0,1,2.07,1.584,4.774,4.774,0,0,1-.075,2.758,6.887,6.887,0,0,0-.347,1.677,1.686,1.686,0,0,0,.7,1.485,1.924,1.924,0,0,0,1.93-.2,13.4,13.4,0,0,1,1.716-1.1,1.517,1.517,0,0,1,1.842.372,2.039,2.039,0,0,1,.233.672C671.441,330.086,671.365,330,671.694,331.495Z" transform="translate(-517.208 -281.476)" fill="#2f2e41"/>
  <path id="Path_197" data-name="Path 197" d="M612.582,707.432H542.469a.276.276,0,1,1,0-.552h70.113a.276.276,0,1,1,0,.552Z" transform="translate(-431.495 -564.511)" fill="#3f3d56"/>
  <path id="Path_198" data-name="Path 198" d="M149.032,344.337a7.867,7.867,0,1,1,7.867-7.867A7.867,7.867,0,0,1,149.032,344.337Zm0-14.906a7.039,7.039,0,1,0,7.039,7.039A7.039,7.039,0,0,0,149.032,329.431Z" transform="translate(-141.165 -290.653)" fill="#e6e6e6"/>
  <path id="Path_199" data-name="Path 199" d="M1009.147,344.171a7.867,7.867,0,1,1,7.867-7.867A7.867,7.867,0,0,1,1009.147,344.171Zm0-14.906a7.039,7.039,0,1,0,7.039,7.039A7.039,7.039,0,0,0,1009.147,329.265Z" transform="translate(-763.857 -290.533)" fill="#e6e6e6"/>
</svg>
