<svg id="undraw_quitting_time_re_1whp" xmlns="http://www.w3.org/2000/svg" width="126.733" height="157.652" viewBox="0 0 126.733 157.652">
  <g id="Group_32" data-name="Group 32" transform="translate(107.907 135.344)">
    <path id="Path_233" data-name="Path 233" d="M491.789,605.383c-.083-.255-.715-.143-.776-.371s.546-.418,1.01-1.058c.084-.116.612-.843.409-1.149-.384-.58-3.055.865-3.7.054a10.726,10.726,0,0,0-.618-1.052c-.167-.226-.274-.335-.4-.332-.181,0-.246.232-.531.643-.428.617-.582.539-.864,1.044-.209.375-.234.615-.385.629-.213.02-.3-.447-.562-.465s-.532.443-.664.8a3.564,3.564,0,0,0-.06,1.708,4.221,4.221,0,0,1-.658,2.432l-5.738,9.142c1.232-1.864,4.73-6.946,6.14-8.81a2.519,2.519,0,0,1,1.517-1.18c.648-.1,1.436.223,2.537.2.128,0,.486-.013.573-.2.072-.157-.107-.293-.042-.44.087-.2.479-.113,1.013-.244a2.917,2.917,0,0,0,.853-.377c.066-.04,1.055-.638.944-.978Z" transform="translate(-473.653 -595.322)" fill="#f2f2f2"/>
    <path id="Path_234" data-name="Path 234" d="M461.8,623.715c-.149-.033-.276.31-.406.274s-.048-.388-.228-.8c-.033-.074-.237-.544-.446-.533-.4.021-.457,1.749-1.04,1.83a6.108,6.108,0,0,0-.695,0c-.159.017-.244.038-.279.1-.05.09.043.188.162.446.179.388.1.441.263.725.124.211.234.292.2.37-.052.11-.306.019-.39.142s.064.389.2.558a2.03,2.03,0,0,0,.821.523,2.4,2.4,0,0,1,1,1.025l2.831,5.454c-.559-1.143-2.044-4.326-2.553-5.555a1.434,1.434,0,0,1-.142-1.085c.139-.346.524-.641.832-1.186.036-.064.134-.242.066-.34-.056-.081-.175-.032-.228-.107-.072-.1.083-.268.173-.568a1.66,1.66,0,0,0,.061-.527c0-.044-.009-.7-.208-.745h0Z" transform="translate(-458.694 -611.52)" fill="#f2f2f2"/>
    <path id="Path_235" data-name="Path 235" d="M483.909,622.731l.089-.822.055-.052a1.519,1.519,0,0,0,.47-.752c.009-.041.017-.083.024-.126a1.285,1.285,0,0,1,.229-.6c.091-.122.331-.4.579-.3a.3.3,0,0,1,.144.115l.025-.025a.9.9,0,0,1,.254-.179,1.055,1.055,0,0,0,.21-.135c.043-.034.077-.065.105-.09a.386.386,0,0,1,.351-.133.412.412,0,0,1,.254.3,1.981,1.981,0,0,1,.1.39.621.621,0,0,0,.015.076c.035.089.479.112.647.122.376.02.7.038.779.3.056.184-.061.385-.357.612a1.346,1.346,0,0,1-.265.156.275.275,0,0,1,.091.2h0c.005.205-.205.363-.625.469a1.369,1.369,0,0,1-.429.053,1.6,1.6,0,0,1-.227-.03.27.27,0,0,1-.059.112.406.406,0,0,1-.45.074,3.316,3.316,0,0,1-.563-.224,1.452,1.452,0,0,0-.357-.137.83.83,0,0,0-.566.241l-.519.389h0Z" transform="translate(-477.978 -609.205)" fill="#f2f2f2"/>
    <path id="Path_236" data-name="Path 236" d="M478.383,600.743l-.817.122-.064-.04a1.519,1.519,0,0,0-.846-.264c-.042,0-.085,0-.128.008a1.285,1.285,0,0,1-.636-.07c-.141-.057-.467-.22-.437-.484a.3.3,0,0,1,.074-.168l-.03-.018a.9.9,0,0,1-.238-.2,1.058,1.058,0,0,0-.184-.169c-.044-.033-.082-.058-.114-.079a.386.386,0,0,1-.217-.306.412.412,0,0,1,.226-.322,1.977,1.977,0,0,1,.352-.2.609.609,0,0,0,.069-.033c.077-.057-.013-.492-.046-.656-.076-.368-.141-.687.088-.828.164-.1.387-.039.683.19a1.34,1.34,0,0,1,.218.217.275.275,0,0,1,.168-.138h0c.2-.057.4.106.612.486a1.367,1.367,0,0,1,.16.4,1.6,1.6,0,0,1,.029.227.271.271,0,0,1,.123.029.406.406,0,0,1,.186.416,3.319,3.319,0,0,1-.074.6,1.451,1.451,0,0,0-.042.38c.022.186.177.324.377.486l.508.4h0Z" transform="translate(-470.97 -591.898)" fill="#f2f2f2"/>
    <path id="Path_237" data-name="Path 237" d="M490.674,592.4l.089-.822.055-.052a1.52,1.52,0,0,0,.47-.752c.009-.041.017-.083.024-.126a1.285,1.285,0,0,1,.229-.6c.091-.121.331-.4.579-.3a.3.3,0,0,1,.143.115l.025-.025a.9.9,0,0,1,.254-.179,1.058,1.058,0,0,0,.21-.135c.043-.034.077-.065.105-.09a.386.386,0,0,1,.351-.133.412.412,0,0,1,.254.3,1.98,1.98,0,0,1,.1.39.628.628,0,0,0,.015.076c.035.089.479.112.647.122.376.02.7.038.779.3.056.184-.061.385-.357.612a1.338,1.338,0,0,1-.265.156.275.275,0,0,1,.091.2h0c.005.205-.205.363-.625.469a1.368,1.368,0,0,1-.429.053,1.6,1.6,0,0,1-.227-.03.27.27,0,0,1-.059.112.407.407,0,0,1-.45.074,3.323,3.323,0,0,1-.563-.224,1.452,1.452,0,0,0-.357-.137.83.83,0,0,0-.566.241l-.519.389Z" transform="translate(-483.151 -586.01)" fill="#f2f2f2"/>
    <path id="Path_238" data-name="Path 238" d="M478.259,606.331l-.145-.143,0-.2,0,.2-.2-.021c0-.019,0-.063,0-.132a28.723,28.723,0,0,1,.129-3.3,33.078,33.078,0,0,1,.556-3.723c.257-1.239.524-2.161.739-2.9.162-.559.325-1.089.485-1.605a31.255,31.255,0,0,0,1.076-4.168,3.986,3.986,0,0,0-.065-1.837,3.778,3.778,0,0,0-.7-1.322l.316-.255a4.191,4.191,0,0,1,.773,1.465,4.366,4.366,0,0,1,.076,2.018,31.58,31.58,0,0,1-1.089,4.221c-.159.514-.321,1.042-.483,1.6-.212.734-.477,1.648-.731,2.871a32.67,32.67,0,0,0-.549,3.678,28.268,28.268,0,0,0-.127,3.251c0,.2,0,.24-.059.3Z" transform="translate(-473.386 -584.196)" fill="#f2f2f2"/>
    <path id="Path_239" data-name="Path 239" d="M480.368,578.775l-.049-.013a1.3,1.3,0,0,1-.8-.808,2.839,2.839,0,0,1-.155-.864,5.076,5.076,0,0,1,0-.859c.024-.295.055-.413.136-.506a.62.62,0,0,1,.336-.193.23.23,0,0,1,.042-.113c.1-.15.279-.088.374-.056a1,1,0,0,0,.174.05.511.511,0,0,0,.263-.028,1.131,1.131,0,0,1,.361-.057,1.211,1.211,0,0,1,.613.189,1.78,1.78,0,0,1,.692,1.059,3.1,3.1,0,0,1,.16.818.908.908,0,0,1-.066.5c-.091.178-.23.261-.576.435a5.454,5.454,0,0,1-.691.32,1.526,1.526,0,0,1-.818.12h0Z" transform="translate(-474.491 -575.323)" fill="#f2f2f2"/>
  </g>
  <g id="Group_33" data-name="Group 33" transform="translate(2.986 135.344)">
    <path id="Path_240" data-name="Path 240" d="M45.789,605.383c-.083-.255-.715-.143-.775-.371s.546-.418,1.01-1.058c.084-.116.612-.843.409-1.149-.384-.58-3.055.865-3.7.054a10.723,10.723,0,0,0-.618-1.052c-.167-.226-.274-.335-.4-.332-.181,0-.246.232-.531.643-.428.617-.582.539-.864,1.044-.209.375-.234.615-.385.629-.213.02-.3-.447-.562-.465s-.532.443-.664.8a3.564,3.564,0,0,0-.06,1.708,4.221,4.221,0,0,1-.658,2.432l-5.738,9.142c1.232-1.864,4.73-6.946,6.14-8.81a2.519,2.519,0,0,1,1.517-1.18c.648-.1,1.436.223,2.537.2.129,0,.486-.013.573-.2.072-.157-.107-.293-.042-.44.087-.2.479-.113,1.013-.244a2.917,2.917,0,0,0,.853-.377c.066-.04,1.055-.638.944-.978Z" transform="translate(-27.653 -595.322)" fill="#f2f2f2"/>
    <path id="Path_241" data-name="Path 241" d="M15.8,623.715c-.149-.033-.276.31-.406.274s-.048-.388-.228-.8c-.032-.074-.237-.544-.446-.533-.4.021-.457,1.749-1.04,1.83a6.107,6.107,0,0,0-.695,0c-.159.017-.244.038-.279.1-.05.09.043.188.162.446.179.388.1.441.263.725.124.211.234.292.2.37-.052.11-.306.019-.39.142s.064.389.2.558a2.029,2.029,0,0,0,.821.523,2.4,2.4,0,0,1,1,1.025l2.831,5.454c-.559-1.143-2.044-4.326-2.553-5.555a1.434,1.434,0,0,1-.142-1.085c.139-.346.524-.641.832-1.186.036-.064.134-.242.066-.34-.056-.081-.175-.032-.228-.107-.072-.1.083-.268.173-.568a1.661,1.661,0,0,0,.061-.527c0-.044-.009-.7-.208-.745h0Z" transform="translate(-12.694 -611.52)" fill="#f2f2f2"/>
    <path id="Path_242" data-name="Path 242" d="M37.909,622.731l.089-.822.055-.052a1.519,1.519,0,0,0,.47-.752c.009-.041.017-.083.024-.126a1.285,1.285,0,0,1,.229-.6c.091-.122.331-.4.579-.3a.3.3,0,0,1,.144.115l.025-.025a.9.9,0,0,1,.254-.179,1.055,1.055,0,0,0,.21-.135c.043-.034.077-.065.105-.09a.386.386,0,0,1,.351-.133.412.412,0,0,1,.254.3,1.979,1.979,0,0,1,.1.39.622.622,0,0,0,.015.076c.035.089.479.112.647.122.376.02.7.038.779.3.056.184-.061.385-.357.612a1.345,1.345,0,0,1-.265.156.275.275,0,0,1,.091.2h0c.005.205-.205.363-.625.469a1.369,1.369,0,0,1-.429.053,1.6,1.6,0,0,1-.227-.03.271.271,0,0,1-.059.112.406.406,0,0,1-.45.074,3.317,3.317,0,0,1-.563-.224,1.452,1.452,0,0,0-.357-.137.83.83,0,0,0-.566.241l-.519.389h0Z" transform="translate(-31.978 -609.205)" fill="#f2f2f2"/>
    <path id="Path_243" data-name="Path 243" d="M32.383,600.743l-.817.122-.064-.04a1.519,1.519,0,0,0-.846-.264c-.042,0-.085,0-.128.008a1.285,1.285,0,0,1-.636-.07c-.141-.057-.467-.22-.437-.484a.3.3,0,0,1,.074-.168l-.03-.018a.9.9,0,0,1-.238-.2,1.058,1.058,0,0,0-.184-.169c-.044-.033-.082-.058-.114-.079a.386.386,0,0,1-.217-.306.411.411,0,0,1,.226-.322,1.977,1.977,0,0,1,.352-.2.608.608,0,0,0,.069-.033c.077-.057-.013-.492-.046-.656-.076-.368-.141-.687.088-.828.164-.1.387-.039.683.19a1.34,1.34,0,0,1,.218.217.275.275,0,0,1,.168-.138h0c.2-.057.4.106.612.486a1.367,1.367,0,0,1,.16.4,1.6,1.6,0,0,1,.029.227.271.271,0,0,1,.123.029.406.406,0,0,1,.186.416,3.316,3.316,0,0,1-.074.6,1.452,1.452,0,0,0-.042.38c.022.186.177.324.377.486l.508.4h0Z" transform="translate(-24.97 -591.898)" fill="#f2f2f2"/>
    <path id="Path_244" data-name="Path 244" d="M44.674,592.4l.089-.822.055-.052a1.52,1.52,0,0,0,.47-.752c.009-.041.017-.083.024-.126a1.285,1.285,0,0,1,.229-.6c.091-.121.331-.4.579-.3a.3.3,0,0,1,.144.115l.025-.025a.9.9,0,0,1,.254-.179,1.057,1.057,0,0,0,.21-.135c.043-.034.077-.065.105-.09a.386.386,0,0,1,.351-.133.412.412,0,0,1,.254.3,1.981,1.981,0,0,1,.1.39.623.623,0,0,0,.015.076c.035.089.479.112.647.122.376.02.7.038.779.3.056.184-.061.385-.357.612a1.339,1.339,0,0,1-.265.156.275.275,0,0,1,.091.2h0c.005.205-.205.363-.625.469a1.368,1.368,0,0,1-.429.053,1.6,1.6,0,0,1-.227-.03.271.271,0,0,1-.059.112.407.407,0,0,1-.45.074,3.321,3.321,0,0,1-.563-.224,1.452,1.452,0,0,0-.357-.137.83.83,0,0,0-.566.241l-.519.389Z" transform="translate(-37.151 -586.01)" fill="#f2f2f2"/>
    <path id="Path_245" data-name="Path 245" d="M32.259,606.331l-.145-.143,0-.2,0,.2-.2-.021c0-.019,0-.063,0-.132a28.726,28.726,0,0,1,.128-3.3,33.084,33.084,0,0,1,.556-3.723c.257-1.239.524-2.161.739-2.9.162-.559.325-1.089.485-1.605A31.265,31.265,0,0,0,34.9,590.34a3.987,3.987,0,0,0-.065-1.837,3.778,3.778,0,0,0-.7-1.322l.316-.255a4.191,4.191,0,0,1,.773,1.465,4.366,4.366,0,0,1,.076,2.018,31.576,31.576,0,0,1-1.089,4.221c-.159.514-.321,1.042-.483,1.6-.212.734-.477,1.648-.731,2.871a32.678,32.678,0,0,0-.549,3.678,28.268,28.268,0,0,0-.127,3.251c0,.2,0,.24-.059.3h0Z" transform="translate(-27.386 -584.196)" fill="#f2f2f2"/>
    <path id="Path_246" data-name="Path 246" d="M34.368,578.775l-.049-.013a1.3,1.3,0,0,1-.8-.808,2.839,2.839,0,0,1-.155-.864,5.073,5.073,0,0,1,0-.859c.024-.295.055-.413.136-.506a.62.62,0,0,1,.336-.193.23.23,0,0,1,.042-.113c.1-.15.279-.088.374-.056a.994.994,0,0,0,.174.05.511.511,0,0,0,.263-.028,1.13,1.13,0,0,1,.361-.057,1.211,1.211,0,0,1,.613.189,1.78,1.78,0,0,1,.692,1.059,3.1,3.1,0,0,1,.16.818.909.909,0,0,1-.066.5c-.091.178-.23.261-.576.435a5.457,5.457,0,0,1-.691.32,1.526,1.526,0,0,1-.818.12h0Z" transform="translate(-28.491 -575.323)" fill="#f2f2f2"/>
  </g>
  <g id="Group_36" data-name="Group 36" transform="translate(24.048)">
    <path id="Path_247" data-name="Path 247" d="M175.262,0H110.251a8.029,8.029,0,0,0-8.029,8.029V149.176a8.029,8.029,0,0,0,8.029,8.029h65.011a8.029,8.029,0,0,0,8.029-8.029V8.029A8.029,8.029,0,0,0,175.262,0Zm-2.719,145.435a5.956,5.956,0,0,1-5.956,5.954H119.633a5.954,5.954,0,0,1-5.954-5.954V20.229a5.954,5.954,0,0,1,5.954-5.954h46.953a5.956,5.956,0,0,1,5.956,5.954Z" transform="translate(-102.222)" fill="#e6e6e6"/>
    <circle id="Ellipse_27" data-name="Ellipse 27" cx="2.115" cy="2.115" r="2.115" transform="translate(65.385 72.434)" fill="#e6e6e6"/>
    <circle id="Ellipse_28" data-name="Ellipse 28" cx="2.115" cy="2.115" r="2.115" transform="translate(65.435 80.682)" fill="#e6e6e6"/>
    <g id="Group_34" data-name="Group 34" transform="translate(18.505 22.118)">
      <path id="Path_248" data-name="Path 248" d="M195.115,94.02H183.922a3.042,3.042,0,0,0-3.039,3.037v73.23a3.043,3.043,0,0,0,3.039,3.039h11.193a3.041,3.041,0,0,0,3.039-3.039V97.057A3.041,3.041,0,0,0,195.115,94.02Zm2.334,76.267a2.318,2.318,0,0,1-.663,1.626l0,0a1.681,1.681,0,0,1-.132.127,2.325,2.325,0,0,1-1.536.579H183.922a2.336,2.336,0,0,1-2.334-2.334V97.057a2.336,2.336,0,0,1,2.334-2.334h11.193a2.336,2.336,0,0,1,2.334,2.334Z" transform="translate(-180.882 -94.02)" fill="#e6e6e6"/>
      <path id="Path_249" data-name="Path 249" d="M308.987,94.02h-11.2a3.042,3.042,0,0,0-3.039,3.037v73.23a3.043,3.043,0,0,0,3.039,3.039h11.2a3.041,3.041,0,0,0,3.037-3.039V97.057A3.04,3.04,0,0,0,308.987,94.02Zm2.334,76.267a2.336,2.336,0,0,1-2.334,2.334h-11.2a2.336,2.336,0,0,1-2.334-2.334V97.057a2.336,2.336,0,0,1,2.334-2.334h11.2a2.336,2.336,0,0,1,2.334,2.334Z" transform="translate(-267.965 -94.02)" fill="#e6e6e6"/>
    </g>
    <g id="Group_35" data-name="Group 35" transform="translate(19.74 111.646)">
      <path id="Path_250" data-name="Path 250" d="M194.385,474.908l-3.141-.014v.4h9.121a2.558,2.558,0,0,1,.3.019v-.376Zm7.4.035a2.956,2.956,0,0,0-1.12-.336,2.558,2.558,0,0,0-.3-.016h-11.2a3.015,3.015,0,0,0-1.287.287,3.047,3.047,0,0,0-1.75,2.752v24.235a3.042,3.042,0,0,0,3.037,3.039h11.2a2.558,2.558,0,0,0,.3-.016,3.041,3.041,0,0,0,2.736-3.023V477.629A3.048,3.048,0,0,0,201.786,474.943Zm.913,26.922a2.337,2.337,0,0,1-2.033,2.315,2.558,2.558,0,0,1-.3.019h-11.2a2.336,2.336,0,0,1-2.334-2.334V477.629a2.336,2.336,0,0,1,2.334-2.334h11.2a2.558,2.558,0,0,1,.3.019,2.337,2.337,0,0,1,2.033,2.315Zm-2.334-27.275h-5.98v.706h5.98a2.558,2.558,0,0,1,.3.019v-.708A2.558,2.558,0,0,0,200.365,474.59Z" transform="translate(-186.132 -474.59)" fill="#e6e6e6"/>
      <path id="Path_251" data-name="Path 251" d="M303.239,475.011v.285h4.754v-.261Zm12.633.059a3.03,3.03,0,0,0-1.284-.459,2.9,2.9,0,0,0-.353-.021h-11.2a3,3,0,0,0-1.527.414,3.04,3.04,0,0,0-1.51,2.625v24.235a3.042,3.042,0,0,0,3.037,3.039h11.2a3.044,3.044,0,0,0,3.039-3.039V477.629A3.042,3.042,0,0,0,315.872,475.07Zm.7,26.795a2.336,2.336,0,0,1-2.334,2.334h-11.2a2.334,2.334,0,0,1-2.331-2.334V477.629a2.334,2.334,0,0,1,2.331-2.334h11.2a2.336,2.336,0,0,1,2.334,2.334Z" transform="translate(-273.215 -474.59)" fill="#e6e6e6"/>
    </g>
  </g>
  <path id="uuid-8943ba36-0713-4259-858d-a2e7cd96e868-93" d="M320.026,391.953c.626,1.526,1.921,2.439,2.891,2.041s1.25-1.958.624-3.484a4.128,4.128,0,0,0-1.123-1.593l-2.734-6.431-2.991,1.347,3.013,6.2a4.128,4.128,0,0,0,.32,1.923Z" transform="translate(-242.192 -292.506)" fill="#ffb6b6"/>
  <path id="Path_252" data-name="Path 252" d="M296.258,248.553l1.567-.627h0a18.489,18.489,0,0,1,2.932,9.6l.2,9.517,4.389,16.3-5.016,1.881-6.27-20.376Z" transform="translate(-224.885 -189.602)" fill="#2f2e41"/>
  <path id="Path_253" data-name="Path 253" d="M293.351,359.923a1.991,1.991,0,0,1-.594-.091l-5.334-1.666a1.975,1.975,0,0,1-1-3.057l14.894-20.222a1.975,1.975,0,0,1,3.112-.088l3.036,3.669a1.982,1.982,0,0,1,.1,2.382l-12.6,18.219A1.966,1.966,0,0,1,293.351,359.923Z" transform="translate(-218.745 -255.491)" fill="#01b6a4"/>
  <path id="Path_254" data-name="Path 254" d="M356.668,353.931a.234.234,0,0,1-.172-.075l-3.21-3.46a.235.235,0,0,1,.345-.32l3.21,3.46a.235.235,0,0,1-.172.4Z" transform="translate(-270.127 -267.663)" fill="#fff"/>
  <path id="Path_255" data-name="Path 255" d="M350.668,362.931a.234.234,0,0,1-.172-.075l-3.21-3.46a.235.235,0,0,1,.345-.32l3.21,3.46a.235.235,0,0,1-.172.4Z" transform="translate(-265.539 -274.546)" fill="#fff"/>
  <path id="Path_256" data-name="Path 256" d="M343.668,372.931a.234.234,0,0,1-.172-.075l-3.21-3.46a.235.235,0,1,1,.345-.32l3.21,3.46a.235.235,0,0,1-.172.4Z" transform="translate(-260.186 -282.193)" fill="#fff"/>
  <path id="Path_257" data-name="Path 257" d="M336.668,381.931a.234.234,0,0,1-.172-.075l-3.21-3.46a.235.235,0,1,1,.345-.32l3.21,3.46a.235.235,0,0,1-.172.4Z" transform="translate(-254.832 -289.076)" fill="#fff"/>
  <path id="Path_258" data-name="Path 258" d="M329.668,390.93a.234.234,0,0,1-.172-.075l-3.21-3.46a.235.235,0,1,1,.345-.32l3.21,3.46a.235.235,0,0,1-.172.4Z" transform="translate(-249.479 -295.958)" fill="#fff"/>
  <path id="Path_259" data-name="Path 259" d="M321.668,398.93a.234.234,0,0,1-.172-.075l-3.21-3.46a.235.235,0,1,1,.345-.32l3.21,3.46a.235.235,0,0,1-.172.4Z" transform="translate(-243.361 -302.077)" fill="#fff"/>
  <g id="Group_37" data-name="Group 37" transform="translate(63.261 139.962)">
    <path id="Path_260" data-name="Path 260" d="M273.053,610.266l3.559-1.074-2.447-14.239-5.253,1.584Z" transform="translate(-268.913 -594.953)" fill="#ffb6b6"/>
    <path id="Path_261" data-name="Path 261" d="M295.47,639.068h0a3.194,3.194,0,0,1,.473.955h0a1.262,1.262,0,0,1-.844,1.572l-11.023,3.324a.861.861,0,0,1-1.073-.576l-.138-.459a3.68,3.68,0,0,1-.351-3.253s1.8.91,3.253-1.8l.279-1.3,5.432,1.913,2.558-.44c.56-.1,1.015-.317,1.434.066Z" transform="translate(-279.16 -627.513)" fill="#2f2e41"/>
  </g>
  <g id="Group_38" data-name="Group 38" transform="translate(50.606 136.937)">
    <path id="Path_262" data-name="Path 262" d="M222.1,593l2.826,2.415,10.66-9.752L231.42,582.1Z" transform="translate(-220.461 -582.095)" fill="#ffb6b6"/>
    <path id="Path_263" data-name="Path 263" d="M226.5,630.642h0a3.19,3.19,0,0,1-.548.914h0a1.262,1.262,0,0,1-1.779.139l-8.752-7.48a.861.861,0,0,1-.1-1.214l.311-.364a3.68,3.68,0,0,1,2.548-2.053s.2,2,3.275,1.763l1.244-.467,1.325,5.6,1.753,1.915c.383.419.815.683.719,1.242Z" transform="translate(-215.118 -611.529)" fill="#2f2e41"/>
  </g>
  <circle id="Ellipse_29" data-name="Ellipse 29" cx="5.948" cy="5.948" r="5.948" transform="translate(60.663 40.151)" fill="#ffb6b6"/>
  <path id="Path_264" data-name="Path 264" d="M256.634,220.609l7.837,2.508.94,2.821L265.1,236.6l-10.345-12.226Z" transform="translate(-194.823 -168.711)" fill="#01b6a4"/>
  <path id="Path_265" data-name="Path 265" d="M241.541,231.888l-5.8-2.981v10.4l-8.9-12.352-1.918,1.955-8.15,5.486,5.329,15.987v7.837l-4.389,12.539,15.36,8.464,10.345-5.956-3.135-21.943,2.194-16.614Z" transform="translate(-165.78 -173.564)" fill="#2f2e41"/>
  <path id="Path_266" data-name="Path 266" d="M256.671,415.746l6.27,23.511-18.809,24.138-4.7-4.7,13.636-21.16L241,414.492Z" transform="translate(-183.104 -316.984)" fill="#2f2e41"/>
  <path id="Path_267" data-name="Path 267" d="M230.1,408.457l6.583,25.705,3.6,25.042,7.143-.9-2.284-27.272-4.075-23.2Z" transform="translate(-175.971 -311.889)" fill="#2f2e41"/>
  <path id="Path_268" data-name="Path 268" d="M259.729,177.206v-3l1.881-2.641-.627-1.209-.313-1.54s4.075,1.661,5.643,1.422.627-.318,1.1-.592a1.672,1.672,0,0,0,0-2.784c-1.411-1.251-.317-1.565-3.215-1.251s-6.659.313-7.286,1.254a3.166,3.166,0,0,0-.627,1.567s-3.762.313-.94,7.21l1.567,3.448.627-1.254s-.627-3.448.313-2.194A4.428,4.428,0,0,0,259.729,177.206Z" transform="translate(-194.469 -126.562)" fill="#2f2e41"/>
  <g id="Group_39" data-name="Group 39" transform="translate(67.767 54.508)">
    <path id="Path_269" data-name="Path 269" d="M293.192,247.854l-3.386-7.663a.485.485,0,0,1,.289-.656l6.309-2.122a.485.485,0,0,1,.625.34l2.079,8.136a.486.486,0,0,1-.318.581l-5,1.648a.489.489,0,0,1-.153.025A.483.483,0,0,1,293.192,247.854Z" transform="translate(-289.365 -236.052)" fill="#f2f2f2"/>
    <path id="Path_270" data-name="Path 270" d="M288.221,235.116c.083-.044.193-.1.327-.169a.382.382,0,0,1-.131-.22l-.125-.626a.384.384,0,0,1,.186-.409c.858-.488,3.844-2.079,6.169-1.982a.382.382,0,0,1,.332.23l.269.613a.382.382,0,0,1,.025.231c.181-.022.363-.042.545-.056a.29.29,0,0,1,.277.151l.137.252a.291.291,0,0,1-.165.416l-7.565,2.481a.291.291,0,0,1-.379-.236l-.054-.377a.291.291,0,0,1,.152-.3Z" transform="translate(-288.067 -231.705)" fill="#3f3d56"/>
  </g>
  <path id="uuid-6ac075a0-6726-4d05-b93b-edb7bfd7649c-94" d="M278.822,258.122c1.249-1.077,1.706-2.594,1.021-3.389s-2.253-.566-3.5.511a4.127,4.127,0,0,0-1.156,1.57l-5.235,4.629,2.225,2.41,4.924-4.819a4.127,4.127,0,0,0,1.723-.912Z" transform="translate(-206.444 -194.445)" fill="#ffb6b6"/>
  <path id="Path_271" data-name="Path 271" d="M188.573,343.874l-1.2,16.613a2.156,2.156,0,0,1-1.86,1.979c-4.919.677-10.37-.008-16.237-1.762a2.145,2.145,0,0,1-1.5-2.349l2.26-16.467a2.152,2.152,0,0,1,1.749-1.826c4.775-.855,9.932-.029,15.273,1.6A2.15,2.15,0,0,1,188.573,343.874Z" transform="translate(-128.294 -259.801)" fill="#01b6a4"/>
  <path id="Path_272" data-name="Path 272" d="M226.027,311.555c2.529.108,3.227,6.194,3.284,8.529l.627-.015c-.009-.367-.259-8.983-3.883-9.141" transform="translate(-172.854 -237.783)" fill="#3f3d56"/>
  <path id="Path_273" data-name="Path 273" d="M210.045,258.9l-3.448-.314-3.024,14.422a5,5,0,0,0,3.987,5.938l2.485.456,17.241-12.98-3.992-6.074-11.682,7.328Z" transform="translate(-155.6 -197.754)" fill="#2f2e41"/>
  <path id="Path_274" data-name="Path 274" d="M208.18,292.268c-3.571-.153-9.519,11.638-9.624,11.966l.6.191c.024-.076,5.9-11.663,9-11.53" transform="translate(-151.846 -223.512)" fill="#3f3d56"/>
  <path id="Path_275" data-name="Path 275" d="M0,668c0,.155.218.28.489.28H123.7c.271,0,.489-.125.489-.28s-.218-.28-.489-.28H.489C.218,667.725,0,667.85,0,668Z" transform="translate(0 -510.644)" fill="#ccc"/>
</svg>
