<svg xmlns="http://www.w3.org/2000/svg" width="23.375" height="17" viewBox="0 0 23.375 17">
  <path id="payments_FILL0_wght400_GRAD0_opsz48" d="M53.281,266.094a3.174,3.174,0,1,1,2.258-.93A3.074,3.074,0,0,1,53.281,266.094Zm-8.5,3.719a1.6,1.6,0,0,1-1.594-1.594V257.594A1.6,1.6,0,0,1,44.781,256h17a1.6,1.6,0,0,1,1.594,1.594v10.625a1.6,1.6,0,0,1-1.594,1.594Zm2.656-1.594H59.125a2.631,2.631,0,0,1,2.656-2.656V260.25a2.63,2.63,0,0,1-2.656-2.656H47.438a2.63,2.63,0,0,1-2.656,2.656v5.313a2.631,2.631,0,0,1,2.656,2.656ZM60.188,273H41.594A1.6,1.6,0,0,1,40,271.406V259.188h1.594v12.219H60.188Zm-15.406-4.781v0Z" transform="translate(-40 -256)" fill="#01b6a4"/>
</svg>
