<svg xmlns="http://www.w3.org/2000/svg" width="49.561" height="44.604" viewBox="0 0 49.561 44.604">
  <path id="ecg_heart_FILL1_wght400_GRAD0_opsz48" d="M115,216a13.477,13.477,0,0,1,10.377,4.584,15.632,15.632,0,0,1,4.182,10.9,19.355,19.355,0,0,1-.124,2.2,12.652,12.652,0,0,1-.434,2.137H113.515l-4.213-6.319a2.335,2.335,0,0,0-.867-.805,2.389,2.389,0,0,0-1.177-.31,2.343,2.343,0,0,0-1.456.5,2.542,2.542,0,0,0-.9,1.239l-3.345,10.036-2.168-3.221a2.335,2.335,0,0,0-.867-.805,2.389,2.389,0,0,0-1.177-.31H80.558a12.652,12.652,0,0,1-.434-2.137A18.815,18.815,0,0,1,80,231.55a15.777,15.777,0,0,1,4.151-10.965A13.383,13.383,0,0,1,94.5,216a13.581,13.581,0,0,1,5.607,1.177,15,15,0,0,1,4.677,3.283,14.284,14.284,0,0,1,4.615-3.283A13.581,13.581,0,0,1,115,216ZM104.78,260.6a5.779,5.779,0,0,1-2.137-.4,5.325,5.325,0,0,1-1.828-1.208l-16.6-16.665q-.372-.372-.681-.743t-.62-.805H95.983L100.2,247.1a2.335,2.335,0,0,0,.867.805,2.388,2.388,0,0,0,1.177.31,2.613,2.613,0,0,0,2.416-1.735L108,236.444l2.106,3.221a2.916,2.916,0,0,0,.929.805,2.388,2.388,0,0,0,1.177.31h14.373l-.62.743-.619.743-16.665,16.727a5.405,5.405,0,0,1-1.8,1.208A5.542,5.542,0,0,1,104.78,260.6Z" transform="translate(-80 -216)" fill="#01b6a4"/>
</svg>
