<svg xmlns="http://www.w3.org/2000/svg" width="34.043" height="37.5" viewBox="0 0 34.043 37.5">
  <path id="home_health_FILL1_wght400_GRAD0_opsz48" d="M174.362,254.138v2.66a2.66,2.66,0,1,0,5.319,0v-2.66h2.66a2.66,2.66,0,1,0,0-5.319h-2.66v-2.66a2.66,2.66,0,1,0-5.319,0v2.66H171.7a2.66,2.66,0,1,0,0,5.319ZM163.191,268.5A3.2,3.2,0,0,1,160,265.309V244.564a3.169,3.169,0,0,1,.339-1.436,3.061,3.061,0,0,1,.938-1.117l13.83-10.372a3.053,3.053,0,0,1,1.906-.638,3.124,3.124,0,0,1,1.923.638l13.83,10.372a3.06,3.06,0,0,1,.938,1.117,3.169,3.169,0,0,1,.339,1.436v20.745a3.2,3.2,0,0,1-3.191,3.191Z" transform="translate(-160 -231)" fill="#01b6a4"/>
</svg>
